<svg width="45" height="27" viewBox="0 0 45 27" fill="none" xmlns="http://www.w3.org/2000/svg">
<path d="M24.9156 4.20531C24.967 4.07842 24.9912 3.93922 24.9912 3.79V3.675V3.625V3.525V3.475V2.86C24.9912 2.56139 24.9004 2.30897 24.705 2.1217C24.5109 1.93568 24.2537 1.85 23.9512 1.85C23.8001 1.85 23.66 1.87211 23.5335 1.91955C23.4093 1.96614 23.2999 2.03323 23.2075 2.1216L23.2075 2.12158L23.2051 2.12393C23.1437 2.18539 23.0926 2.25566 23.0515 2.3338C23.0494 2.32644 23.0472 2.31915 23.0449 2.31193C23.0177 2.21584 22.9771 2.12942 22.9195 2.05768C22.8653 1.98628 22.7971 1.93111 22.7148 1.89692C22.6424 1.86548 22.5657 1.85 22.4862 1.85C22.376 1.85 22.2727 1.8773 22.1812 1.93492V1V0.85H22.0312H21.1812H21.0312V0.95H19.2614H19.1114V1.1V1.88V2.03H19.2614H19.5614V4.6V4.75H19.7114H20.6114H20.7614V4.6V2.03H21.0312V4.6V4.75H21.1812H21.9412H22.0312H22.0912H22.1812H22.9412H23.0912V4.6V4.39085C23.1239 4.44091 23.1618 4.48773 23.2051 4.53107L23.2051 4.53107L23.2063 4.53223C23.3948 4.71662 23.6499 4.8 23.9512 4.8C24.1025 4.8 24.2435 4.77785 24.3725 4.73097C24.5 4.6846 24.6117 4.61753 24.7049 4.5284L24.7049 4.52842L24.7073 4.52607C24.7987 4.4346 24.8683 4.3272 24.9156 4.20531ZM24.9156 4.20531C24.9158 4.20493 24.9159 4.20454 24.9161 4.20415L24.7762 4.15L24.9152 4.20646C24.9153 4.20608 24.9155 4.2057 24.9156 4.20531Z" fill="#1E1E1E" stroke="white" stroke-width="0.3"/>
<path d="M10.5513 4.76999H12.7593C13.4793 4.76999 14.0353 4.95399 14.4273 5.32199C14.8193 5.68199 15.0153 6.24599 15.0153 7.01399V7.07399C15.0153 7.42599 14.9753 7.73399 14.8953 7.99799C14.8153 8.25399 14.7153 8.46999 14.5953 8.64599C14.4753 8.82199 14.3433 8.95399 14.1993 9.04199C14.0553 9.12199 13.9193 9.16199 13.7913 9.16199V9.30599C13.9193 9.30599 14.0553 9.35399 14.1993 9.44999C14.3433 9.54599 14.4753 9.68199 14.5953 9.85799C14.7153 10.034 14.8153 10.25 14.8953 10.506C14.9753 10.762 15.0153 11.05 15.0153 11.37V11.466C15.0153 11.786 15.0193 12.086 15.0273 12.366C15.0433 12.638 15.0793 12.906 15.1353 13.17H12.9753C12.9193 12.906 12.8833 12.634 12.8673 12.354C12.8593 12.074 12.8553 11.77 12.8553 11.442V10.362C12.8553 10.274 12.8513 10.222 12.8433 10.206C12.8353 10.182 12.7993 10.17 12.7353 10.17H12.7113V13.17H10.5513V4.76999ZM12.7113 6.64199V8.29799H12.7353C12.7993 8.29799 12.8353 8.28999 12.8433 8.27399C12.8513 8.24999 12.8553 8.19399 12.8553 8.10599V6.82199C12.8553 6.74199 12.8513 6.69399 12.8433 6.67799C12.8353 6.65399 12.7993 6.64199 12.7353 6.64199H12.7113Z" fill="#1E1E1E"/>
<path d="M18.6393 6.64199H17.6793V7.80599H18.6393V9.67799H17.6793V11.298H18.6393V13.17H15.5193V4.76999H18.6393V6.64199Z" fill="#1E1E1E"/>
<path d="M23.541 4.76999V6.64199H22.461V13.17H20.301V6.64199H19.2211V4.76999H23.541Z" fill="#1E1E1E"/>
<path d="M23.9513 4.76999H26.1593C26.8793 4.76999 27.4353 4.95399 27.8273 5.32199C28.2193 5.68199 28.4153 6.24599 28.4153 7.01399V7.07399C28.4153 7.42599 28.3753 7.73399 28.2953 7.99799C28.2153 8.25399 28.1153 8.46999 27.9953 8.64599C27.8753 8.82199 27.7433 8.95399 27.5993 9.04199C27.4553 9.12199 27.3193 9.16199 27.1913 9.16199V9.30599C27.3193 9.30599 27.4553 9.35399 27.5993 9.44999C27.7433 9.54599 27.8753 9.68199 27.9953 9.85799C28.1153 10.034 28.2153 10.25 28.2953 10.506C28.3753 10.762 28.4153 11.05 28.4153 11.37V11.466C28.4153 11.786 28.4193 12.086 28.4273 12.366C28.4433 12.638 28.4793 12.906 28.5353 13.17H26.3753C26.3193 12.906 26.2833 12.634 26.2673 12.354C26.2593 12.074 26.2553 11.77 26.2553 11.442V10.362C26.2553 10.274 26.2513 10.222 26.2433 10.206C26.2353 10.182 26.1993 10.17 26.1353 10.17H26.1113V13.17H23.9513V4.76999ZM26.1113 6.64199V8.29799H26.1353C26.1993 8.29799 26.2353 8.28999 26.2433 8.27399C26.2513 8.24999 26.2553 8.19399 26.2553 8.10599V6.82199C26.2553 6.74199 26.2513 6.69399 26.2433 6.67799C26.2353 6.65399 26.1993 6.64199 26.1353 6.64199H26.1113Z" fill="#1E1E1E"/>
<path d="M28.7513 6.87C28.7513 6.51 28.7993 6.19 28.8953 5.91C28.9913 5.63 29.1313 5.398 29.3153 5.214C29.5073 5.03 29.7393 4.88999 30.0113 4.79399C30.2833 4.69799 30.5953 4.64999 30.9473 4.64999C31.3073 4.64999 31.6273 4.70199 31.9073 4.80599C32.1873 4.90199 32.4233 5.046 32.6153 5.238C32.8153 5.422 32.9633 5.654 33.0593 5.934C33.1633 6.206 33.2153 6.518 33.2153 6.87V11.058C33.2153 11.418 33.1633 11.738 33.0593 12.018C32.9633 12.29 32.8153 12.522 32.6153 12.714C32.4233 12.898 32.1873 13.042 31.9073 13.146C31.6273 13.242 31.3073 13.29 30.9473 13.29C30.5953 13.29 30.2833 13.242 30.0113 13.146C29.7393 13.05 29.5073 12.91 29.3153 12.726C29.1313 12.534 28.9913 12.298 28.8953 12.018C28.7993 11.738 28.7513 11.418 28.7513 11.058V6.87ZM30.9113 6.714V11.226C30.9113 11.258 30.9113 11.286 30.9113 11.31C30.9193 11.334 30.9233 11.354 30.9233 11.37C30.9313 11.386 30.9393 11.398 30.9473 11.406C30.9633 11.414 30.9753 11.418 30.9833 11.418C30.9993 11.418 31.0113 11.414 31.0193 11.406C31.0273 11.398 31.0313 11.386 31.0313 11.37C31.0393 11.354 31.0433 11.334 31.0433 11.31C31.0513 11.286 31.0553 11.258 31.0553 11.226V6.714C31.0553 6.674 31.0513 6.642 31.0433 6.618C31.0433 6.594 31.0393 6.578 31.0313 6.57C31.0313 6.554 31.0273 6.542 31.0193 6.534C31.0113 6.526 30.9993 6.522 30.9833 6.522C30.9753 6.522 30.9633 6.526 30.9473 6.534C30.9393 6.542 30.9313 6.554 30.9233 6.57C30.9233 6.578 30.9193 6.594 30.9113 6.618C30.9113 6.642 30.9113 6.674 30.9113 6.714Z" fill="#1E1E1E"/>
<mask id="mask0_4_304" style="mask-type:luminance" maskUnits="userSpaceOnUse" x="9" y="3" width="26" height="12">
<path d="M34.5513 3.64999H9.55133V14.65H34.5513V3.64999Z" fill="white"/>
<path d="M10.5513 4.76999H12.7593C13.4793 4.76999 14.0353 4.95399 14.4273 5.32199C14.8193 5.68199 15.0153 6.24599 15.0153 7.01399V7.07399C15.0153 7.42599 14.9753 7.73399 14.8953 7.99799C14.8153 8.25399 14.7153 8.46999 14.5953 8.64599C14.4753 8.82199 14.3433 8.95399 14.1993 9.04199C14.0553 9.12199 13.9193 9.16199 13.7913 9.16199V9.30599C13.9193 9.30599 14.0553 9.35399 14.1993 9.44999C14.3433 9.54599 14.4753 9.68199 14.5953 9.85799C14.7153 10.034 14.8153 10.25 14.8953 10.506C14.9753 10.762 15.0153 11.05 15.0153 11.37V11.466C15.0153 11.786 15.0193 12.086 15.0273 12.366C15.0433 12.638 15.0793 12.906 15.1353 13.17H12.9753C12.9193 12.906 12.8833 12.634 12.8673 12.354C12.8593 12.074 12.8553 11.77 12.8553 11.442V10.362C12.8553 10.274 12.8513 10.222 12.8433 10.206C12.8353 10.182 12.7993 10.17 12.7353 10.17H12.7113V13.17H10.5513V4.76999ZM12.7113 6.64199V8.29799H12.7353C12.7993 8.29799 12.8353 8.28999 12.8433 8.27399C12.8513 8.24999 12.8553 8.19399 12.8553 8.10599V6.82199C12.8553 6.74199 12.8513 6.69399 12.8433 6.67799C12.8353 6.65399 12.7993 6.64199 12.7353 6.64199H12.7113Z" fill="black"/>
<path d="M18.6393 6.64199H17.6793V7.80599H18.6393V9.67799H17.6793V11.298H18.6393V13.17H15.5193V4.76999H18.6393V6.64199Z" fill="black"/>
<path d="M23.541 4.76999V6.64199H22.461V13.17H20.301V6.64199H19.2211V4.76999H23.541Z" fill="black"/>
<path d="M23.9514 4.76999H26.1594C26.8794 4.76999 27.4354 4.95399 27.8274 5.32199C28.2194 5.68199 28.4154 6.24599 28.4154 7.01399V7.07399C28.4154 7.42599 28.3754 7.73399 28.2954 7.99799C28.2154 8.25399 28.1154 8.46999 27.9954 8.64599C27.8754 8.82199 27.7434 8.95399 27.5994 9.04199C27.4554 9.12199 27.3194 9.16199 27.1914 9.16199V9.30599C27.3194 9.30599 27.4554 9.35399 27.5994 9.44999C27.7434 9.54599 27.8754 9.68199 27.9954 9.85799C28.1154 10.034 28.2154 10.25 28.2954 10.506C28.3754 10.762 28.4154 11.05 28.4154 11.37V11.466C28.4154 11.786 28.4194 12.086 28.4274 12.366C28.4434 12.638 28.4794 12.906 28.5354 13.17H26.3754C26.3194 12.906 26.2834 12.634 26.2674 12.354C26.2594 12.074 26.2554 11.77 26.2554 11.442V10.362C26.2554 10.274 26.2514 10.222 26.2434 10.206C26.2354 10.182 26.1994 10.17 26.1354 10.17H26.1114V13.17H23.9514V4.76999ZM26.1114 6.64199V8.29799H26.1354C26.1994 8.29799 26.2354 8.28999 26.2434 8.27399C26.2514 8.24999 26.2554 8.19399 26.2554 8.10599V6.82199C26.2554 6.74199 26.2514 6.69399 26.2434 6.67799C26.2354 6.65399 26.1994 6.64199 26.1354 6.64199H26.1114Z" fill="black"/>
<path d="M28.7513 6.87C28.7513 6.51 28.7993 6.19 28.8953 5.91C28.9913 5.63 29.1313 5.398 29.3153 5.214C29.5073 5.03 29.7393 4.88999 30.0113 4.79399C30.2833 4.69799 30.5953 4.64999 30.9473 4.64999C31.3073 4.64999 31.6273 4.70199 31.9073 4.80599C32.1873 4.90199 32.4233 5.046 32.6153 5.238C32.8153 5.422 32.9633 5.654 33.0593 5.934C33.1633 6.206 33.2153 6.518 33.2153 6.87V11.058C33.2153 11.418 33.1633 11.738 33.0593 12.018C32.9633 12.29 32.8153 12.522 32.6153 12.714C32.4233 12.898 32.1873 13.042 31.9073 13.146C31.6273 13.242 31.3073 13.29 30.9473 13.29C30.5953 13.29 30.2833 13.242 30.0113 13.146C29.7393 13.05 29.5073 12.91 29.3153 12.726C29.1313 12.534 28.9913 12.298 28.8953 12.018C28.7993 11.738 28.7513 11.418 28.7513 11.058V6.87ZM30.9113 6.714V11.226C30.9113 11.258 30.9113 11.286 30.9113 11.31C30.9193 11.334 30.9233 11.354 30.9233 11.37C30.9313 11.386 30.9393 11.398 30.9473 11.406C30.9633 11.414 30.9753 11.418 30.9833 11.418C30.9993 11.418 31.0113 11.414 31.0193 11.406C31.0273 11.398 31.0313 11.386 31.0313 11.37C31.0393 11.354 31.0433 11.334 31.0433 11.31C31.0513 11.286 31.0553 11.258 31.0553 11.226V6.714C31.0553 6.674 31.0513 6.642 31.0433 6.618C31.0433 6.594 31.0393 6.578 31.0313 6.57C31.0313 6.554 31.0273 6.542 31.0193 6.534C31.0113 6.526 30.9993 6.522 30.9833 6.522C30.9753 6.522 30.9633 6.526 30.9473 6.534C30.9393 6.542 30.9313 6.554 30.9233 6.57C30.9233 6.578 30.9193 6.594 30.9113 6.618C30.9113 6.642 30.9113 6.674 30.9113 6.714Z" fill="black"/>
</mask>
<g mask="url(#mask0_4_304)">
<path d="M10.5513 4.76999H12.7593C13.4793 4.76999 14.0353 4.95399 14.4273 5.32199C14.8193 5.68199 15.0153 6.24599 15.0153 7.01399V7.07399C15.0153 7.42599 14.9753 7.73399 14.8953 7.99799C14.8153 8.25399 14.7153 8.46999 14.5953 8.64599C14.4753 8.82199 14.3433 8.95399 14.1993 9.04199C14.0553 9.12199 13.9193 9.16199 13.7913 9.16199V9.30599C13.9193 9.30599 14.0553 9.35399 14.1993 9.44999C14.3433 9.54599 14.4753 9.68199 14.5953 9.85799C14.7153 10.034 14.8153 10.25 14.8953 10.506C14.9753 10.762 15.0153 11.05 15.0153 11.37V11.466C15.0153 11.786 15.0193 12.086 15.0273 12.366C15.0433 12.638 15.0793 12.906 15.1353 13.17H12.9753C12.9193 12.906 12.8833 12.634 12.8673 12.354C12.8593 12.074 12.8553 11.77 12.8553 11.442V10.362C12.8553 10.274 12.8513 10.222 12.8433 10.206C12.8353 10.182 12.7993 10.17 12.7353 10.17H12.7113V13.17H10.5513V4.76999ZM12.7113 6.64199V8.29799H12.7353C12.7993 8.29799 12.8353 8.28999 12.8433 8.27399C12.8513 8.24999 12.8553 8.19399 12.8553 8.10599V6.82199C12.8553 6.74199 12.8513 6.69399 12.8433 6.67799C12.8353 6.65399 12.7993 6.64199 12.7353 6.64199H12.7113Z" stroke="white"/>
</g>
<mask id="mask1_4_304" style="mask-type:luminance" maskUnits="userSpaceOnUse" x="9" y="3" width="26" height="12">
<path d="M34.5513 3.64999H9.55133V14.65H34.5513V3.64999Z" fill="white"/>
<path d="M10.5513 4.76999H12.7593C13.4793 4.76999 14.0353 4.95399 14.4273 5.32199C14.8193 5.68199 15.0153 6.24599 15.0153 7.01399V7.07399C15.0153 7.42599 14.9753 7.73399 14.8953 7.99799C14.8153 8.25399 14.7153 8.46999 14.5953 8.64599C14.4753 8.82199 14.3433 8.95399 14.1993 9.04199C14.0553 9.12199 13.9193 9.16199 13.7913 9.16199V9.30599C13.9193 9.30599 14.0553 9.35399 14.1993 9.44999C14.3433 9.54599 14.4753 9.68199 14.5953 9.85799C14.7153 10.034 14.8153 10.25 14.8953 10.506C14.9753 10.762 15.0153 11.05 15.0153 11.37V11.466C15.0153 11.786 15.0193 12.086 15.0273 12.366C15.0433 12.638 15.0793 12.906 15.1353 13.17H12.9753C12.9193 12.906 12.8833 12.634 12.8673 12.354C12.8593 12.074 12.8553 11.77 12.8553 11.442V10.362C12.8553 10.274 12.8513 10.222 12.8433 10.206C12.8353 10.182 12.7993 10.17 12.7353 10.17H12.7113V13.17H10.5513V4.76999ZM12.7113 6.64199V8.29799H12.7353C12.7993 8.29799 12.8353 8.28999 12.8433 8.27399C12.8513 8.24999 12.8553 8.19399 12.8553 8.10599V6.82199C12.8553 6.74199 12.8513 6.69399 12.8433 6.67799C12.8353 6.65399 12.7993 6.64199 12.7353 6.64199H12.7113Z" fill="black"/>
<path d="M18.6393 6.64199H17.6793V7.80599H18.6393V9.67799H17.6793V11.298H18.6393V13.17H15.5193V4.76999H18.6393V6.64199Z" fill="black"/>
<path d="M23.541 4.76999V6.64199H22.461V13.17H20.301V6.64199H19.2211V4.76999H23.541Z" fill="black"/>
<path d="M23.9514 4.76999H26.1594C26.8794 4.76999 27.4354 4.95399 27.8274 5.32199C28.2194 5.68199 28.4154 6.24599 28.4154 7.01399V7.07399C28.4154 7.42599 28.3754 7.73399 28.2954 7.99799C28.2154 8.25399 28.1154 8.46999 27.9954 8.64599C27.8754 8.82199 27.7434 8.95399 27.5994 9.04199C27.4554 9.12199 27.3194 9.16199 27.1914 9.16199V9.30599C27.3194 9.30599 27.4554 9.35399 27.5994 9.44999C27.7434 9.54599 27.8754 9.68199 27.9954 9.85799C28.1154 10.034 28.2154 10.25 28.2954 10.506C28.3754 10.762 28.4154 11.05 28.4154 11.37V11.466C28.4154 11.786 28.4194 12.086 28.4274 12.366C28.4434 12.638 28.4794 12.906 28.5354 13.17H26.3754C26.3194 12.906 26.2834 12.634 26.2674 12.354C26.2594 12.074 26.2554 11.77 26.2554 11.442V10.362C26.2554 10.274 26.2514 10.222 26.2434 10.206C26.2354 10.182 26.1994 10.17 26.1354 10.17H26.1114V13.17H23.9514V4.76999ZM26.1114 6.64199V8.29799H26.1354C26.1994 8.29799 26.2354 8.28999 26.2434 8.27399C26.2514 8.24999 26.2554 8.19399 26.2554 8.10599V6.82199C26.2554 6.74199 26.2514 6.69399 26.2434 6.67799C26.2354 6.65399 26.1994 6.64199 26.1354 6.64199H26.1114Z" fill="black"/>
<path d="M28.7513 6.87C28.7513 6.51 28.7993 6.19 28.8953 5.91C28.9913 5.63 29.1313 5.398 29.3153 5.214C29.5073 5.03 29.7393 4.88999 30.0113 4.79399C30.2833 4.69799 30.5953 4.64999 30.9473 4.64999C31.3073 4.64999 31.6273 4.70199 31.9073 4.80599C32.1873 4.90199 32.4233 5.046 32.6153 5.238C32.8153 5.422 32.9633 5.654 33.0593 5.934C33.1633 6.206 33.2153 6.518 33.2153 6.87V11.058C33.2153 11.418 33.1633 11.738 33.0593 12.018C32.9633 12.29 32.8153 12.522 32.6153 12.714C32.4233 12.898 32.1873 13.042 31.9073 13.146C31.6273 13.242 31.3073 13.29 30.9473 13.29C30.5953 13.29 30.2833 13.242 30.0113 13.146C29.7393 13.05 29.5073 12.91 29.3153 12.726C29.1313 12.534 28.9913 12.298 28.8953 12.018C28.7993 11.738 28.7513 11.418 28.7513 11.058V6.87ZM30.9113 6.714V11.226C30.9113 11.258 30.9113 11.286 30.9113 11.31C30.9193 11.334 30.9233 11.354 30.9233 11.37C30.9313 11.386 30.9393 11.398 30.9473 11.406C30.9633 11.414 30.9753 11.418 30.9833 11.418C30.9993 11.418 31.0113 11.414 31.0193 11.406C31.0273 11.398 31.0313 11.386 31.0313 11.37C31.0393 11.354 31.0433 11.334 31.0433 11.31C31.0513 11.286 31.0553 11.258 31.0553 11.226V6.714C31.0553 6.674 31.0513 6.642 31.0433 6.618C31.0433 6.594 31.0393 6.578 31.0313 6.57C31.0313 6.554 31.0273 6.542 31.0193 6.534C31.0113 6.526 30.9993 6.522 30.9833 6.522C30.9753 6.522 30.9633 6.526 30.9473 6.534C30.9393 6.542 30.9313 6.554 30.9233 6.57C30.9233 6.578 30.9193 6.594 30.9113 6.618C30.9113 6.642 30.9113 6.674 30.9113 6.714Z" fill="black"/>
</mask>
<g mask="url(#mask1_4_304)">
<path d="M18.6393 6.64199H17.6793V7.80599H18.6393V9.67799H17.6793V11.298H18.6393V13.17H15.5193V4.76999H18.6393V6.64199Z" stroke="white"/>
</g>
<mask id="mask2_4_304" style="mask-type:luminance" maskUnits="userSpaceOnUse" x="9" y="3" width="26" height="12">
<path d="M34.5513 3.64999H9.55133V14.65H34.5513V3.64999Z" fill="white"/>
<path d="M10.5513 4.76999H12.7593C13.4793 4.76999 14.0353 4.95399 14.4273 5.32199C14.8193 5.68199 15.0153 6.24599 15.0153 7.01399V7.07399C15.0153 7.42599 14.9753 7.73399 14.8953 7.99799C14.8153 8.25399 14.7153 8.46999 14.5953 8.64599C14.4753 8.82199 14.3433 8.95399 14.1993 9.04199C14.0553 9.12199 13.9193 9.16199 13.7913 9.16199V9.30599C13.9193 9.30599 14.0553 9.35399 14.1993 9.44999C14.3433 9.54599 14.4753 9.68199 14.5953 9.85799C14.7153 10.034 14.8153 10.25 14.8953 10.506C14.9753 10.762 15.0153 11.05 15.0153 11.37V11.466C15.0153 11.786 15.0193 12.086 15.0273 12.366C15.0433 12.638 15.0793 12.906 15.1353 13.17H12.9753C12.9193 12.906 12.8833 12.634 12.8673 12.354C12.8593 12.074 12.8553 11.77 12.8553 11.442V10.362C12.8553 10.274 12.8513 10.222 12.8433 10.206C12.8353 10.182 12.7993 10.17 12.7353 10.17H12.7113V13.17H10.5513V4.76999ZM12.7113 6.64199V8.29799H12.7353C12.7993 8.29799 12.8353 8.28999 12.8433 8.27399C12.8513 8.24999 12.8553 8.19399 12.8553 8.10599V6.82199C12.8553 6.74199 12.8513 6.69399 12.8433 6.67799C12.8353 6.65399 12.7993 6.64199 12.7353 6.64199H12.7113Z" fill="black"/>
<path d="M18.6393 6.64199H17.6793V7.80599H18.6393V9.67799H17.6793V11.298H18.6393V13.17H15.5193V4.76999H18.6393V6.64199Z" fill="black"/>
<path d="M23.541 4.76999V6.64199H22.461V13.17H20.301V6.64199H19.2211V4.76999H23.541Z" fill="black"/>
<path d="M23.9514 4.76999H26.1594C26.8794 4.76999 27.4354 4.95399 27.8274 5.32199C28.2194 5.68199 28.4154 6.24599 28.4154 7.01399V7.07399C28.4154 7.42599 28.3754 7.73399 28.2954 7.99799C28.2154 8.25399 28.1154 8.46999 27.9954 8.64599C27.8754 8.82199 27.7434 8.95399 27.5994 9.04199C27.4554 9.12199 27.3194 9.16199 27.1914 9.16199V9.30599C27.3194 9.30599 27.4554 9.35399 27.5994 9.44999C27.7434 9.54599 27.8754 9.68199 27.9954 9.85799C28.1154 10.034 28.2154 10.25 28.2954 10.506C28.3754 10.762 28.4154 11.05 28.4154 11.37V11.466C28.4154 11.786 28.4194 12.086 28.4274 12.366C28.4434 12.638 28.4794 12.906 28.5354 13.17H26.3754C26.3194 12.906 26.2834 12.634 26.2674 12.354C26.2594 12.074 26.2554 11.77 26.2554 11.442V10.362C26.2554 10.274 26.2514 10.222 26.2434 10.206C26.2354 10.182 26.1994 10.17 26.1354 10.17H26.1114V13.17H23.9514V4.76999ZM26.1114 6.64199V8.29799H26.1354C26.1994 8.29799 26.2354 8.28999 26.2434 8.27399C26.2514 8.24999 26.2554 8.19399 26.2554 8.10599V6.82199C26.2554 6.74199 26.2514 6.69399 26.2434 6.67799C26.2354 6.65399 26.1994 6.64199 26.1354 6.64199H26.1114Z" fill="black"/>
<path d="M28.7513 6.87C28.7513 6.51 28.7993 6.19 28.8953 5.91C28.9913 5.63 29.1313 5.398 29.3153 5.214C29.5073 5.03 29.7393 4.88999 30.0113 4.79399C30.2833 4.69799 30.5953 4.64999 30.9473 4.64999C31.3073 4.64999 31.6273 4.70199 31.9073 4.80599C32.1873 4.90199 32.4233 5.046 32.6153 5.238C32.8153 5.422 32.9633 5.654 33.0593 5.934C33.1633 6.206 33.2153 6.518 33.2153 6.87V11.058C33.2153 11.418 33.1633 11.738 33.0593 12.018C32.9633 12.29 32.8153 12.522 32.6153 12.714C32.4233 12.898 32.1873 13.042 31.9073 13.146C31.6273 13.242 31.3073 13.29 30.9473 13.29C30.5953 13.29 30.2833 13.242 30.0113 13.146C29.7393 13.05 29.5073 12.91 29.3153 12.726C29.1313 12.534 28.9913 12.298 28.8953 12.018C28.7993 11.738 28.7513 11.418 28.7513 11.058V6.87ZM30.9113 6.714V11.226C30.9113 11.258 30.9113 11.286 30.9113 11.31C30.9193 11.334 30.9233 11.354 30.9233 11.37C30.9313 11.386 30.9393 11.398 30.9473 11.406C30.9633 11.414 30.9753 11.418 30.9833 11.418C30.9993 11.418 31.0113 11.414 31.0193 11.406C31.0273 11.398 31.0313 11.386 31.0313 11.37C31.0393 11.354 31.0433 11.334 31.0433 11.31C31.0513 11.286 31.0553 11.258 31.0553 11.226V6.714C31.0553 6.674 31.0513 6.642 31.0433 6.618C31.0433 6.594 31.0393 6.578 31.0313 6.57C31.0313 6.554 31.0273 6.542 31.0193 6.534C31.0113 6.526 30.9993 6.522 30.9833 6.522C30.9753 6.522 30.9633 6.526 30.9473 6.534C30.9393 6.542 30.9313 6.554 30.9233 6.57C30.9233 6.578 30.9193 6.594 30.9113 6.618C30.9113 6.642 30.9113 6.674 30.9113 6.714Z" fill="black"/>
</mask>
<g mask="url(#mask2_4_304)">
<path d="M23.541 4.76999V6.64199H22.461V13.17H20.301V6.64199H19.2211V4.76999H23.541Z" stroke="white"/>
</g>
<mask id="mask3_4_304" style="mask-type:luminance" maskUnits="userSpaceOnUse" x="9" y="3" width="26" height="12">
<path d="M34.5513 3.64999H9.55133V14.65H34.5513V3.64999Z" fill="white"/>
<path d="M10.5513 4.76999H12.7593C13.4793 4.76999 14.0353 4.95399 14.4273 5.32199C14.8193 5.68199 15.0153 6.24599 15.0153 7.01399V7.07399C15.0153 7.42599 14.9753 7.73399 14.8953 7.99799C14.8153 8.25399 14.7153 8.46999 14.5953 8.64599C14.4753 8.82199 14.3433 8.95399 14.1993 9.04199C14.0553 9.12199 13.9193 9.16199 13.7913 9.16199V9.30599C13.9193 9.30599 14.0553 9.35399 14.1993 9.44999C14.3433 9.54599 14.4753 9.68199 14.5953 9.85799C14.7153 10.034 14.8153 10.25 14.8953 10.506C14.9753 10.762 15.0153 11.05 15.0153 11.37V11.466C15.0153 11.786 15.0193 12.086 15.0273 12.366C15.0433 12.638 15.0793 12.906 15.1353 13.17H12.9753C12.9193 12.906 12.8833 12.634 12.8673 12.354C12.8593 12.074 12.8553 11.77 12.8553 11.442V10.362C12.8553 10.274 12.8513 10.222 12.8433 10.206C12.8353 10.182 12.7993 10.17 12.7353 10.17H12.7113V13.17H10.5513V4.76999ZM12.7113 6.64199V8.29799H12.7353C12.7993 8.29799 12.8353 8.28999 12.8433 8.27399C12.8513 8.24999 12.8553 8.19399 12.8553 8.10599V6.82199C12.8553 6.74199 12.8513 6.69399 12.8433 6.67799C12.8353 6.65399 12.7993 6.64199 12.7353 6.64199H12.7113Z" fill="black"/>
<path d="M18.6393 6.64199H17.6793V7.80599H18.6393V9.67799H17.6793V11.298H18.6393V13.17H15.5193V4.76999H18.6393V6.64199Z" fill="black"/>
<path d="M23.541 4.76999V6.64199H22.461V13.17H20.301V6.64199H19.2211V4.76999H23.541Z" fill="black"/>
<path d="M23.9514 4.76999H26.1594C26.8794 4.76999 27.4354 4.95399 27.8274 5.32199C28.2194 5.68199 28.4154 6.24599 28.4154 7.01399V7.07399C28.4154 7.42599 28.3754 7.73399 28.2954 7.99799C28.2154 8.25399 28.1154 8.46999 27.9954 8.64599C27.8754 8.82199 27.7434 8.95399 27.5994 9.04199C27.4554 9.12199 27.3194 9.16199 27.1914 9.16199V9.30599C27.3194 9.30599 27.4554 9.35399 27.5994 9.44999C27.7434 9.54599 27.8754 9.68199 27.9954 9.85799C28.1154 10.034 28.2154 10.25 28.2954 10.506C28.3754 10.762 28.4154 11.05 28.4154 11.37V11.466C28.4154 11.786 28.4194 12.086 28.4274 12.366C28.4434 12.638 28.4794 12.906 28.5354 13.17H26.3754C26.3194 12.906 26.2834 12.634 26.2674 12.354C26.2594 12.074 26.2554 11.77 26.2554 11.442V10.362C26.2554 10.274 26.2514 10.222 26.2434 10.206C26.2354 10.182 26.1994 10.17 26.1354 10.17H26.1114V13.17H23.9514V4.76999ZM26.1114 6.64199V8.29799H26.1354C26.1994 8.29799 26.2354 8.28999 26.2434 8.27399C26.2514 8.24999 26.2554 8.19399 26.2554 8.10599V6.82199C26.2554 6.74199 26.2514 6.69399 26.2434 6.67799C26.2354 6.65399 26.1994 6.64199 26.1354 6.64199H26.1114Z" fill="black"/>
<path d="M28.7513 6.87C28.7513 6.51 28.7993 6.19 28.8953 5.91C28.9913 5.63 29.1313 5.398 29.3153 5.214C29.5073 5.03 29.7393 4.88999 30.0113 4.79399C30.2833 4.69799 30.5953 4.64999 30.9473 4.64999C31.3073 4.64999 31.6273 4.70199 31.9073 4.80599C32.1873 4.90199 32.4233 5.046 32.6153 5.238C32.8153 5.422 32.9633 5.654 33.0593 5.934C33.1633 6.206 33.2153 6.518 33.2153 6.87V11.058C33.2153 11.418 33.1633 11.738 33.0593 12.018C32.9633 12.29 32.8153 12.522 32.6153 12.714C32.4233 12.898 32.1873 13.042 31.9073 13.146C31.6273 13.242 31.3073 13.29 30.9473 13.29C30.5953 13.29 30.2833 13.242 30.0113 13.146C29.7393 13.05 29.5073 12.91 29.3153 12.726C29.1313 12.534 28.9913 12.298 28.8953 12.018C28.7993 11.738 28.7513 11.418 28.7513 11.058V6.87ZM30.9113 6.714V11.226C30.9113 11.258 30.9113 11.286 30.9113 11.31C30.9193 11.334 30.9233 11.354 30.9233 11.37C30.9313 11.386 30.9393 11.398 30.9473 11.406C30.9633 11.414 30.9753 11.418 30.9833 11.418C30.9993 11.418 31.0113 11.414 31.0193 11.406C31.0273 11.398 31.0313 11.386 31.0313 11.37C31.0393 11.354 31.0433 11.334 31.0433 11.31C31.0513 11.286 31.0553 11.258 31.0553 11.226V6.714C31.0553 6.674 31.0513 6.642 31.0433 6.618C31.0433 6.594 31.0393 6.578 31.0313 6.57C31.0313 6.554 31.0273 6.542 31.0193 6.534C31.0113 6.526 30.9993 6.522 30.9833 6.522C30.9753 6.522 30.9633 6.526 30.9473 6.534C30.9393 6.542 30.9313 6.554 30.9233 6.57C30.9233 6.578 30.9193 6.594 30.9113 6.618C30.9113 6.642 30.9113 6.674 30.9113 6.714Z" fill="black"/>
</mask>
<g mask="url(#mask3_4_304)">
<path d="M23.9514 4.76999H26.1594C26.8794 4.76999 27.4354 4.95399 27.8274 5.32199C28.2194 5.68199 28.4154 6.24599 28.4154 7.01399V7.07399C28.4154 7.42599 28.3754 7.73399 28.2954 7.99799C28.2154 8.25399 28.1154 8.46999 27.9954 8.64599C27.8754 8.82199 27.7434 8.95399 27.5994 9.04199C27.4554 9.12199 27.3194 9.16199 27.1914 9.16199V9.30599C27.3194 9.30599 27.4554 9.35399 27.5994 9.44999C27.7434 9.54599 27.8754 9.68199 27.9954 9.85799C28.1154 10.034 28.2154 10.25 28.2954 10.506C28.3754 10.762 28.4154 11.05 28.4154 11.37V11.466C28.4154 11.786 28.4194 12.086 28.4274 12.366C28.4434 12.638 28.4794 12.906 28.5354 13.17H26.3754C26.3194 12.906 26.2834 12.634 26.2674 12.354C26.2594 12.074 26.2554 11.77 26.2554 11.442V10.362C26.2554 10.274 26.2514 10.222 26.2434 10.206C26.2354 10.182 26.1994 10.17 26.1354 10.17H26.1114V13.17H23.9514V4.76999ZM26.1114 6.64199V8.29799H26.1354C26.1994 8.29799 26.2354 8.28999 26.2434 8.27399C26.2514 8.24999 26.2554 8.19399 26.2554 8.10599V6.82199C26.2554 6.74199 26.2514 6.69399 26.2434 6.67799C26.2354 6.65399 26.1994 6.64199 26.1354 6.64199H26.1114Z" stroke="white"/>
</g>
<mask id="mask4_4_304" style="mask-type:luminance" maskUnits="userSpaceOnUse" x="9" y="3" width="26" height="12">
<path d="M34.5513 3.64999H9.55133V14.65H34.5513V3.64999Z" fill="white"/>
<path d="M10.5513 4.76999H12.7593C13.4793 4.76999 14.0353 4.95399 14.4273 5.32199C14.8193 5.68199 15.0153 6.24599 15.0153 7.01399V7.07399C15.0153 7.42599 14.9753 7.73399 14.8953 7.99799C14.8153 8.25399 14.7153 8.46999 14.5953 8.64599C14.4753 8.82199 14.3433 8.95399 14.1993 9.04199C14.0553 9.12199 13.9193 9.16199 13.7913 9.16199V9.30599C13.9193 9.30599 14.0553 9.35399 14.1993 9.44999C14.3433 9.54599 14.4753 9.68199 14.5953 9.85799C14.7153 10.034 14.8153 10.25 14.8953 10.506C14.9753 10.762 15.0153 11.05 15.0153 11.37V11.466C15.0153 11.786 15.0193 12.086 15.0273 12.366C15.0433 12.638 15.0793 12.906 15.1353 13.17H12.9753C12.9193 12.906 12.8833 12.634 12.8673 12.354C12.8593 12.074 12.8553 11.77 12.8553 11.442V10.362C12.8553 10.274 12.8513 10.222 12.8433 10.206C12.8353 10.182 12.7993 10.17 12.7353 10.17H12.7113V13.17H10.5513V4.76999ZM12.7113 6.64199V8.29799H12.7353C12.7993 8.29799 12.8353 8.28999 12.8433 8.27399C12.8513 8.24999 12.8553 8.19399 12.8553 8.10599V6.82199C12.8553 6.74199 12.8513 6.69399 12.8433 6.67799C12.8353 6.65399 12.7993 6.64199 12.7353 6.64199H12.7113Z" fill="black"/>
<path d="M18.6393 6.64199H17.6793V7.80599H18.6393V9.67799H17.6793V11.298H18.6393V13.17H15.5193V4.76999H18.6393V6.64199Z" fill="black"/>
<path d="M23.541 4.76999V6.64199H22.461V13.17H20.301V6.64199H19.2211V4.76999H23.541Z" fill="black"/>
<path d="M23.9514 4.76999H26.1594C26.8794 4.76999 27.4354 4.95399 27.8274 5.32199C28.2194 5.68199 28.4154 6.24599 28.4154 7.01399V7.07399C28.4154 7.42599 28.3754 7.73399 28.2954 7.99799C28.2154 8.25399 28.1154 8.46999 27.9954 8.64599C27.8754 8.82199 27.7434 8.95399 27.5994 9.04199C27.4554 9.12199 27.3194 9.16199 27.1914 9.16199V9.30599C27.3194 9.30599 27.4554 9.35399 27.5994 9.44999C27.7434 9.54599 27.8754 9.68199 27.9954 9.85799C28.1154 10.034 28.2154 10.25 28.2954 10.506C28.3754 10.762 28.4154 11.05 28.4154 11.37V11.466C28.4154 11.786 28.4194 12.086 28.4274 12.366C28.4434 12.638 28.4794 12.906 28.5354 13.17H26.3754C26.3194 12.906 26.2834 12.634 26.2674 12.354C26.2594 12.074 26.2554 11.77 26.2554 11.442V10.362C26.2554 10.274 26.2514 10.222 26.2434 10.206C26.2354 10.182 26.1994 10.17 26.1354 10.17H26.1114V13.17H23.9514V4.76999ZM26.1114 6.64199V8.29799H26.1354C26.1994 8.29799 26.2354 8.28999 26.2434 8.27399C26.2514 8.24999 26.2554 8.19399 26.2554 8.10599V6.82199C26.2554 6.74199 26.2514 6.69399 26.2434 6.67799C26.2354 6.65399 26.1994 6.64199 26.1354 6.64199H26.1114Z" fill="black"/>
<path d="M28.7513 6.87C28.7513 6.51 28.7993 6.19 28.8953 5.91C28.9913 5.63 29.1313 5.398 29.3153 5.214C29.5073 5.03 29.7393 4.88999 30.0113 4.79399C30.2833 4.69799 30.5953 4.64999 30.9473 4.64999C31.3073 4.64999 31.6273 4.70199 31.9073 4.80599C32.1873 4.90199 32.4233 5.046 32.6153 5.238C32.8153 5.422 32.9633 5.654 33.0593 5.934C33.1633 6.206 33.2153 6.518 33.2153 6.87V11.058C33.2153 11.418 33.1633 11.738 33.0593 12.018C32.9633 12.29 32.8153 12.522 32.6153 12.714C32.4233 12.898 32.1873 13.042 31.9073 13.146C31.6273 13.242 31.3073 13.29 30.9473 13.29C30.5953 13.29 30.2833 13.242 30.0113 13.146C29.7393 13.05 29.5073 12.91 29.3153 12.726C29.1313 12.534 28.9913 12.298 28.8953 12.018C28.7993 11.738 28.7513 11.418 28.7513 11.058V6.87ZM30.9113 6.714V11.226C30.9113 11.258 30.9113 11.286 30.9113 11.31C30.9193 11.334 30.9233 11.354 30.9233 11.37C30.9313 11.386 30.9393 11.398 30.9473 11.406C30.9633 11.414 30.9753 11.418 30.9833 11.418C30.9993 11.418 31.0113 11.414 31.0193 11.406C31.0273 11.398 31.0313 11.386 31.0313 11.37C31.0393 11.354 31.0433 11.334 31.0433 11.31C31.0513 11.286 31.0553 11.258 31.0553 11.226V6.714C31.0553 6.674 31.0513 6.642 31.0433 6.618C31.0433 6.594 31.0393 6.578 31.0313 6.57C31.0313 6.554 31.0273 6.542 31.0193 6.534C31.0113 6.526 30.9993 6.522 30.9833 6.522C30.9753 6.522 30.9633 6.526 30.9473 6.534C30.9393 6.542 30.9313 6.554 30.9233 6.57C30.9233 6.578 30.9193 6.594 30.9113 6.618C30.9113 6.642 30.9113 6.674 30.9113 6.714Z" fill="black"/>
</mask>
<g mask="url(#mask4_4_304)">
<path d="M28.7513 6.87C28.7513 6.51 28.7993 6.19 28.8953 5.91C28.9913 5.63 29.1313 5.398 29.3153 5.214C29.5073 5.03 29.7393 4.88999 30.0113 4.79399C30.2833 4.69799 30.5953 4.64999 30.9473 4.64999C31.3073 4.64999 31.6273 4.70199 31.9073 4.80599C32.1873 4.90199 32.4233 5.046 32.6153 5.238C32.8153 5.422 32.9633 5.654 33.0593 5.934C33.1633 6.206 33.2153 6.518 33.2153 6.87V11.058C33.2153 11.418 33.1633 11.738 33.0593 12.018C32.9633 12.29 32.8153 12.522 32.6153 12.714C32.4233 12.898 32.1873 13.042 31.9073 13.146C31.6273 13.242 31.3073 13.29 30.9473 13.29C30.5953 13.29 30.2833 13.242 30.0113 13.146C29.7393 13.05 29.5073 12.91 29.3153 12.726C29.1313 12.534 28.9913 12.298 28.8953 12.018C28.7993 11.738 28.7513 11.418 28.7513 11.058V6.87ZM30.9113 6.714V11.226C30.9113 11.258 30.9113 11.286 30.9113 11.31C30.9193 11.334 30.9233 11.354 30.9233 11.37C30.9313 11.386 30.9393 11.398 30.9473 11.406C30.9633 11.414 30.9753 11.418 30.9833 11.418C30.9993 11.418 31.0113 11.414 31.0193 11.406C31.0273 11.398 31.0313 11.386 31.0313 11.37C31.0393 11.354 31.0433 11.334 31.0433 11.31C31.0513 11.286 31.0553 11.258 31.0553 11.226V6.714C31.0553 6.674 31.0513 6.642 31.0433 6.618C31.0433 6.594 31.0393 6.578 31.0313 6.57C31.0313 6.554 31.0273 6.542 31.0193 6.534C31.0113 6.526 30.9993 6.522 30.9833 6.522C30.9753 6.522 30.9633 6.526 30.9473 6.534C30.9393 6.542 30.9313 6.554 30.9233 6.57C30.9233 6.578 30.9193 6.594 30.9113 6.618C30.9113 6.642 30.9113 6.674 30.9113 6.714Z" stroke="white"/>
</g>
<path d="M7.16 15.064V19.576C7.16 19.608 7.16 19.636 7.16 19.66C7.168 19.684 7.172 19.704 7.172 19.72C7.18 19.736 7.188 19.748 7.196 19.756C7.212 19.764 7.224 19.768 7.232 19.768C7.248 19.768 7.26 19.764 7.268 19.756C7.276 19.748 7.28 19.736 7.28 19.72C7.288 19.704 7.292 19.684 7.292 19.66C7.3 19.636 7.304 19.608 7.304 19.576V17.44H9.464V19.408C9.464 19.768 9.412 20.088 9.308 20.368C9.212 20.64 9.064 20.872 8.864 21.064C8.672 21.248 8.436 21.392 8.156 21.496C7.876 21.592 7.556 21.64 7.196 21.64C6.844 21.64 6.532 21.592 6.26 21.496C5.988 21.4 5.756 21.26 5.564 21.076C5.38 20.884 5.24 20.648 5.144 20.368C5.048 20.088 5 19.768 5 19.408V15.22C5 14.86 5.048 14.54 5.144 14.26C5.24 13.98 5.38 13.748 5.564 13.564C5.756 13.38 5.988 13.24 6.26 13.144C6.532 13.048 6.844 13 7.196 13C7.556 13 7.876 13.052 8.156 13.156C8.436 13.252 8.672 13.396 8.864 13.588C9.064 13.772 9.212 14.004 9.308 14.284C9.412 14.556 9.464 14.868 9.464 15.22V17.2H7.304V15.064C7.304 15.024 7.3 14.992 7.292 14.968C7.292 14.944 7.288 14.928 7.28 14.92C7.28 14.904 7.276 14.892 7.268 14.884C7.26 14.876 7.248 14.872 7.232 14.872C7.224 14.872 7.212 14.876 7.196 14.884C7.188 14.892 7.18 14.904 7.172 14.92C7.172 14.928 7.168 14.944 7.16 14.968C7.16 14.992 7.16 15.024 7.16 15.064Z" fill="#1E1E1E"/>
<path d="M9.79999 15.22C9.79999 14.86 9.84799 14.54 9.94399 14.26C10.04 13.98 10.18 13.748 10.364 13.564C10.556 13.38 10.788 13.24 11.06 13.144C11.332 13.048 11.644 13 11.996 13C12.356 13 12.676 13.052 12.956 13.156C13.236 13.252 13.472 13.396 13.664 13.588C13.864 13.772 14.012 14.004 14.108 14.284C14.212 14.556 14.264 14.868 14.264 15.22V19.408C14.264 19.768 14.212 20.088 14.108 20.368C14.012 20.64 13.864 20.872 13.664 21.064C13.472 21.248 13.236 21.392 12.956 21.496C12.676 21.592 12.356 21.64 11.996 21.64C11.644 21.64 11.332 21.592 11.06 21.496C10.788 21.4 10.556 21.26 10.364 21.076C10.18 20.884 10.04 20.648 9.94399 20.368C9.84799 20.088 9.79999 19.768 9.79999 19.408V15.22ZM11.96 15.064V19.576C11.96 19.608 11.96 19.636 11.96 19.66C11.968 19.684 11.972 19.704 11.972 19.72C11.98 19.736 11.988 19.748 11.996 19.756C12.012 19.764 12.024 19.768 12.032 19.768C12.048 19.768 12.06 19.764 12.068 19.756C12.076 19.748 12.08 19.736 12.08 19.72C12.088 19.704 12.092 19.684 12.092 19.66C12.1 19.636 12.104 19.608 12.104 19.576V15.064C12.104 15.024 12.1 14.992 12.092 14.968C12.092 14.944 12.088 14.928 12.08 14.92C12.08 14.904 12.076 14.892 12.068 14.884C12.06 14.876 12.048 14.872 12.032 14.872C12.024 14.872 12.012 14.876 11.996 14.884C11.988 14.892 11.98 14.904 11.972 14.92C11.972 14.928 11.968 14.944 11.96 14.968C11.96 14.992 11.96 15.024 11.96 15.064Z" fill="#1E1E1E"/>
<path d="M14.5082 13.12H17.2682V17.728H17.4122V13.12H20.1482V21.52H18.1682L18.4202 16.96H18.2762L17.9882 21.52H16.6682L16.3802 16.96H16.2362L16.4882 21.52H14.5082V13.12Z" fill="#1E1E1E"/>
<path d="M20.4 13.12H22.608C23.328 13.12 23.884 13.364 24.276 13.852C24.668 14.332 24.864 15.1 24.864 16.156V16.18C24.864 16.724 24.816 17.18 24.72 17.548C24.632 17.916 24.492 18.212 24.3 18.436C24.116 18.652 23.88 18.808 23.592 18.904C23.304 19 22.968 19.048 22.584 19.048H22.56V21.52H20.4V13.12ZM22.56 14.992V17.176H22.584C22.648 17.176 22.684 17.168 22.692 17.152C22.7 17.128 22.704 17.072 22.704 16.984V15.184C22.704 15.104 22.7 15.052 22.692 15.028C22.684 15.004 22.648 14.992 22.584 14.992H22.56Z" fill="#1E1E1E"/>
<path d="M25.7752 13.12H29.1352L29.6632 21.52H27.5032V16.888H27.3592V21.52H25.1992L25.7752 13.12ZM27.9952 19.792H26.8312V17.92H27.9952V19.792Z" fill="#1E1E1E"/>
<path d="M32.3964 13.12H34.5564V21.52H32.2404L31.6884 16.96H31.5684L32.0604 21.52H29.9004V13.12H32.2164L32.8164 17.728H32.9364L32.3964 13.12Z" fill="#1E1E1E"/>
<path d="M34.7992 13.12H36.9592V16.276H37.1032V13.12H39.2632L38.0872 19.24V21.52H35.9272V19.24L34.7992 13.12Z" fill="#1E1E1E"/>
<mask id="mask5_4_304" style="mask-type:luminance" maskUnits="userSpaceOnUse" x="4" y="12" width="36" height="11">
<path d="M40 12H4V23H40V12Z" fill="white"/>
<path d="M7.16 15.064V19.576C7.16 19.608 7.16 19.636 7.16 19.66C7.168 19.684 7.172 19.704 7.172 19.72C7.18 19.736 7.188 19.748 7.196 19.756C7.212 19.764 7.224 19.768 7.232 19.768C7.248 19.768 7.26 19.764 7.268 19.756C7.276 19.748 7.28 19.736 7.28 19.72C7.288 19.704 7.292 19.684 7.292 19.66C7.3 19.636 7.304 19.608 7.304 19.576V17.44H9.464V19.408C9.464 19.768 9.412 20.088 9.308 20.368C9.212 20.64 9.064 20.872 8.864 21.064C8.672 21.248 8.436 21.392 8.156 21.496C7.876 21.592 7.556 21.64 7.196 21.64C6.844 21.64 6.532 21.592 6.26 21.496C5.988 21.4 5.756 21.26 5.564 21.076C5.38 20.884 5.24 20.648 5.144 20.368C5.048 20.088 5 19.768 5 19.408V15.22C5 14.86 5.048 14.54 5.144 14.26C5.24 13.98 5.38 13.748 5.564 13.564C5.756 13.38 5.988 13.24 6.26 13.144C6.532 13.048 6.844 13 7.196 13C7.556 13 7.876 13.052 8.156 13.156C8.436 13.252 8.672 13.396 8.864 13.588C9.064 13.772 9.212 14.004 9.308 14.284C9.412 14.556 9.464 14.868 9.464 15.22V17.2H7.304V15.064C7.304 15.024 7.3 14.992 7.292 14.968C7.292 14.944 7.288 14.928 7.28 14.92C7.28 14.904 7.276 14.892 7.268 14.884C7.26 14.876 7.248 14.872 7.232 14.872C7.224 14.872 7.212 14.876 7.196 14.884C7.188 14.892 7.18 14.904 7.172 14.92C7.172 14.928 7.168 14.944 7.16 14.968C7.16 14.992 7.16 15.024 7.16 15.064Z" fill="black"/>
<path d="M9.79999 15.22C9.79999 14.86 9.84799 14.54 9.94399 14.26C10.04 13.98 10.18 13.748 10.364 13.564C10.556 13.38 10.788 13.24 11.06 13.144C11.332 13.048 11.644 13 11.996 13C12.356 13 12.676 13.052 12.956 13.156C13.236 13.252 13.472 13.396 13.664 13.588C13.864 13.772 14.012 14.004 14.108 14.284C14.212 14.556 14.264 14.868 14.264 15.22V19.408C14.264 19.768 14.212 20.088 14.108 20.368C14.012 20.64 13.864 20.872 13.664 21.064C13.472 21.248 13.236 21.392 12.956 21.496C12.676 21.592 12.356 21.64 11.996 21.64C11.644 21.64 11.332 21.592 11.06 21.496C10.788 21.4 10.556 21.26 10.364 21.076C10.18 20.884 10.04 20.648 9.94399 20.368C9.84799 20.088 9.79999 19.768 9.79999 19.408V15.22ZM11.96 15.064V19.576C11.96 19.608 11.96 19.636 11.96 19.66C11.968 19.684 11.972 19.704 11.972 19.72C11.98 19.736 11.988 19.748 11.996 19.756C12.012 19.764 12.024 19.768 12.032 19.768C12.048 19.768 12.06 19.764 12.068 19.756C12.076 19.748 12.08 19.736 12.08 19.72C12.088 19.704 12.092 19.684 12.092 19.66C12.1 19.636 12.104 19.608 12.104 19.576V15.064C12.104 15.024 12.1 14.992 12.092 14.968C12.092 14.944 12.088 14.928 12.08 14.92C12.08 14.904 12.076 14.892 12.068 14.884C12.06 14.876 12.048 14.872 12.032 14.872C12.024 14.872 12.012 14.876 11.996 14.884C11.988 14.892 11.98 14.904 11.972 14.92C11.972 14.928 11.968 14.944 11.96 14.968C11.96 14.992 11.96 15.024 11.96 15.064Z" fill="black"/>
<path d="M14.5082 13.12H17.2682V17.728H17.4122V13.12H20.1482V21.52H18.1682L18.4202 16.96H18.2762L17.9882 21.52H16.6682L16.3802 16.96H16.2362L16.4882 21.52H14.5082V13.12Z" fill="black"/>
<path d="M20.4 13.12H22.608C23.328 13.12 23.884 13.364 24.276 13.852C24.668 14.332 24.864 15.1 24.864 16.156V16.18C24.864 16.724 24.816 17.18 24.72 17.548C24.632 17.916 24.492 18.212 24.3 18.436C24.116 18.652 23.88 18.808 23.592 18.904C23.304 19 22.968 19.048 22.584 19.048H22.56V21.52H20.4V13.12ZM22.56 14.992V17.176H22.584C22.648 17.176 22.684 17.168 22.692 17.152C22.7 17.128 22.704 17.072 22.704 16.984V15.184C22.704 15.104 22.7 15.052 22.692 15.028C22.684 15.004 22.648 14.992 22.584 14.992H22.56Z" fill="black"/>
<path d="M25.7752 13.12H29.1352L29.6632 21.52H27.5032V16.888H27.3592V21.52H25.1992L25.7752 13.12ZM27.9952 19.792H26.8312V17.92H27.9952V19.792Z" fill="black"/>
<path d="M32.3964 13.12H34.5564V21.52H32.2404L31.6884 16.96H31.5684L32.0604 21.52H29.9004V13.12H32.2164L32.8164 17.728H32.9364L32.3964 13.12Z" fill="black"/>
<path d="M34.7992 13.12H36.9592V16.276H37.1032V13.12H39.2632L38.0872 19.24V21.52H35.9272V19.24L34.7992 13.12Z" fill="black"/>
</mask>
<g mask="url(#mask5_4_304)">
<path d="M7.16 15.064V19.576C7.16 19.608 7.16 19.636 7.16 19.66C7.168 19.684 7.172 19.704 7.172 19.72C7.18 19.736 7.188 19.748 7.196 19.756C7.212 19.764 7.224 19.768 7.232 19.768C7.248 19.768 7.26 19.764 7.268 19.756C7.276 19.748 7.28 19.736 7.28 19.72C7.288 19.704 7.292 19.684 7.292 19.66C7.3 19.636 7.304 19.608 7.304 19.576V17.44H9.464V19.408C9.464 19.768 9.412 20.088 9.308 20.368C9.212 20.64 9.064 20.872 8.864 21.064C8.672 21.248 8.436 21.392 8.156 21.496C7.876 21.592 7.556 21.64 7.196 21.64C6.844 21.64 6.532 21.592 6.26 21.496C5.988 21.4 5.756 21.26 5.564 21.076C5.38 20.884 5.24 20.648 5.144 20.368C5.048 20.088 5 19.768 5 19.408V15.22C5 14.86 5.048 14.54 5.144 14.26C5.24 13.98 5.38 13.748 5.564 13.564C5.756 13.38 5.988 13.24 6.26 13.144C6.532 13.048 6.844 13 7.196 13C7.556 13 7.876 13.052 8.156 13.156C8.436 13.252 8.672 13.396 8.864 13.588C9.064 13.772 9.212 14.004 9.308 14.284C9.412 14.556 9.464 14.868 9.464 15.22V17.2H7.304V15.064C7.304 15.024 7.3 14.992 7.292 14.968C7.292 14.944 7.288 14.928 7.28 14.92C7.28 14.904 7.276 14.892 7.268 14.884C7.26 14.876 7.248 14.872 7.232 14.872C7.224 14.872 7.212 14.876 7.196 14.884C7.188 14.892 7.18 14.904 7.172 14.92C7.172 14.928 7.168 14.944 7.16 14.968C7.16 14.992 7.16 15.024 7.16 15.064Z" stroke="white"/>
</g>
<mask id="mask6_4_304" style="mask-type:luminance" maskUnits="userSpaceOnUse" x="4" y="12" width="36" height="11">
<path d="M40 12H4V23H40V12Z" fill="white"/>
<path d="M7.16 15.064V19.576C7.16 19.608 7.16 19.636 7.16 19.66C7.168 19.684 7.172 19.704 7.172 19.72C7.18 19.736 7.188 19.748 7.196 19.756C7.212 19.764 7.224 19.768 7.232 19.768C7.248 19.768 7.26 19.764 7.268 19.756C7.276 19.748 7.28 19.736 7.28 19.72C7.288 19.704 7.292 19.684 7.292 19.66C7.3 19.636 7.304 19.608 7.304 19.576V17.44H9.464V19.408C9.464 19.768 9.412 20.088 9.308 20.368C9.212 20.64 9.064 20.872 8.864 21.064C8.672 21.248 8.436 21.392 8.156 21.496C7.876 21.592 7.556 21.64 7.196 21.64C6.844 21.64 6.532 21.592 6.26 21.496C5.988 21.4 5.756 21.26 5.564 21.076C5.38 20.884 5.24 20.648 5.144 20.368C5.048 20.088 5 19.768 5 19.408V15.22C5 14.86 5.048 14.54 5.144 14.26C5.24 13.98 5.38 13.748 5.564 13.564C5.756 13.38 5.988 13.24 6.26 13.144C6.532 13.048 6.844 13 7.196 13C7.556 13 7.876 13.052 8.156 13.156C8.436 13.252 8.672 13.396 8.864 13.588C9.064 13.772 9.212 14.004 9.308 14.284C9.412 14.556 9.464 14.868 9.464 15.22V17.2H7.304V15.064C7.304 15.024 7.3 14.992 7.292 14.968C7.292 14.944 7.288 14.928 7.28 14.92C7.28 14.904 7.276 14.892 7.268 14.884C7.26 14.876 7.248 14.872 7.232 14.872C7.224 14.872 7.212 14.876 7.196 14.884C7.188 14.892 7.18 14.904 7.172 14.92C7.172 14.928 7.168 14.944 7.16 14.968C7.16 14.992 7.16 15.024 7.16 15.064Z" fill="black"/>
<path d="M9.79999 15.22C9.79999 14.86 9.84799 14.54 9.94399 14.26C10.04 13.98 10.18 13.748 10.364 13.564C10.556 13.38 10.788 13.24 11.06 13.144C11.332 13.048 11.644 13 11.996 13C12.356 13 12.676 13.052 12.956 13.156C13.236 13.252 13.472 13.396 13.664 13.588C13.864 13.772 14.012 14.004 14.108 14.284C14.212 14.556 14.264 14.868 14.264 15.22V19.408C14.264 19.768 14.212 20.088 14.108 20.368C14.012 20.64 13.864 20.872 13.664 21.064C13.472 21.248 13.236 21.392 12.956 21.496C12.676 21.592 12.356 21.64 11.996 21.64C11.644 21.64 11.332 21.592 11.06 21.496C10.788 21.4 10.556 21.26 10.364 21.076C10.18 20.884 10.04 20.648 9.94399 20.368C9.84799 20.088 9.79999 19.768 9.79999 19.408V15.22ZM11.96 15.064V19.576C11.96 19.608 11.96 19.636 11.96 19.66C11.968 19.684 11.972 19.704 11.972 19.72C11.98 19.736 11.988 19.748 11.996 19.756C12.012 19.764 12.024 19.768 12.032 19.768C12.048 19.768 12.06 19.764 12.068 19.756C12.076 19.748 12.08 19.736 12.08 19.72C12.088 19.704 12.092 19.684 12.092 19.66C12.1 19.636 12.104 19.608 12.104 19.576V15.064C12.104 15.024 12.1 14.992 12.092 14.968C12.092 14.944 12.088 14.928 12.08 14.92C12.08 14.904 12.076 14.892 12.068 14.884C12.06 14.876 12.048 14.872 12.032 14.872C12.024 14.872 12.012 14.876 11.996 14.884C11.988 14.892 11.98 14.904 11.972 14.92C11.972 14.928 11.968 14.944 11.96 14.968C11.96 14.992 11.96 15.024 11.96 15.064Z" fill="black"/>
<path d="M14.5082 13.12H17.2682V17.728H17.4122V13.12H20.1482V21.52H18.1682L18.4202 16.96H18.2762L17.9882 21.52H16.6682L16.3802 16.96H16.2362L16.4882 21.52H14.5082V13.12Z" fill="black"/>
<path d="M20.4 13.12H22.608C23.328 13.12 23.884 13.364 24.276 13.852C24.668 14.332 24.864 15.1 24.864 16.156V16.18C24.864 16.724 24.816 17.18 24.72 17.548C24.632 17.916 24.492 18.212 24.3 18.436C24.116 18.652 23.88 18.808 23.592 18.904C23.304 19 22.968 19.048 22.584 19.048H22.56V21.52H20.4V13.12ZM22.56 14.992V17.176H22.584C22.648 17.176 22.684 17.168 22.692 17.152C22.7 17.128 22.704 17.072 22.704 16.984V15.184C22.704 15.104 22.7 15.052 22.692 15.028C22.684 15.004 22.648 14.992 22.584 14.992H22.56Z" fill="black"/>
<path d="M25.7752 13.12H29.1352L29.6632 21.52H27.5032V16.888H27.3592V21.52H25.1992L25.7752 13.12ZM27.9952 19.792H26.8312V17.92H27.9952V19.792Z" fill="black"/>
<path d="M32.3964 13.12H34.5564V21.52H32.2404L31.6884 16.96H31.5684L32.0604 21.52H29.9004V13.12H32.2164L32.8164 17.728H32.9364L32.3964 13.12Z" fill="black"/>
<path d="M34.7992 13.12H36.9592V16.276H37.1032V13.12H39.2632L38.0872 19.24V21.52H35.9272V19.24L34.7992 13.12Z" fill="black"/>
</mask>
<g mask="url(#mask6_4_304)">
<path d="M9.79999 15.22C9.79999 14.86 9.84799 14.54 9.94399 14.26C10.04 13.98 10.18 13.748 10.364 13.564C10.556 13.38 10.788 13.24 11.06 13.144C11.332 13.048 11.644 13 11.996 13C12.356 13 12.676 13.052 12.956 13.156C13.236 13.252 13.472 13.396 13.664 13.588C13.864 13.772 14.012 14.004 14.108 14.284C14.212 14.556 14.264 14.868 14.264 15.22V19.408C14.264 19.768 14.212 20.088 14.108 20.368C14.012 20.64 13.864 20.872 13.664 21.064C13.472 21.248 13.236 21.392 12.956 21.496C12.676 21.592 12.356 21.64 11.996 21.64C11.644 21.64 11.332 21.592 11.06 21.496C10.788 21.4 10.556 21.26 10.364 21.076C10.18 20.884 10.04 20.648 9.94399 20.368C9.84799 20.088 9.79999 19.768 9.79999 19.408V15.22ZM11.96 15.064V19.576C11.96 19.608 11.96 19.636 11.96 19.66C11.968 19.684 11.972 19.704 11.972 19.72C11.98 19.736 11.988 19.748 11.996 19.756C12.012 19.764 12.024 19.768 12.032 19.768C12.048 19.768 12.06 19.764 12.068 19.756C12.076 19.748 12.08 19.736 12.08 19.72C12.088 19.704 12.092 19.684 12.092 19.66C12.1 19.636 12.104 19.608 12.104 19.576V15.064C12.104 15.024 12.1 14.992 12.092 14.968C12.092 14.944 12.088 14.928 12.08 14.92C12.08 14.904 12.076 14.892 12.068 14.884C12.06 14.876 12.048 14.872 12.032 14.872C12.024 14.872 12.012 14.876 11.996 14.884C11.988 14.892 11.98 14.904 11.972 14.92C11.972 14.928 11.968 14.944 11.96 14.968C11.96 14.992 11.96 15.024 11.96 15.064Z" stroke="white"/>
</g>
<mask id="mask7_4_304" style="mask-type:luminance" maskUnits="userSpaceOnUse" x="4" y="12" width="36" height="11">
<path d="M40 12H4V23H40V12Z" fill="white"/>
<path d="M7.16 15.064V19.576C7.16 19.608 7.16 19.636 7.16 19.66C7.168 19.684 7.172 19.704 7.172 19.72C7.18 19.736 7.188 19.748 7.196 19.756C7.212 19.764 7.224 19.768 7.232 19.768C7.248 19.768 7.26 19.764 7.268 19.756C7.276 19.748 7.28 19.736 7.28 19.72C7.288 19.704 7.292 19.684 7.292 19.66C7.3 19.636 7.304 19.608 7.304 19.576V17.44H9.464V19.408C9.464 19.768 9.412 20.088 9.308 20.368C9.212 20.64 9.064 20.872 8.864 21.064C8.672 21.248 8.436 21.392 8.156 21.496C7.876 21.592 7.556 21.64 7.196 21.64C6.844 21.64 6.532 21.592 6.26 21.496C5.988 21.4 5.756 21.26 5.564 21.076C5.38 20.884 5.24 20.648 5.144 20.368C5.048 20.088 5 19.768 5 19.408V15.22C5 14.86 5.048 14.54 5.144 14.26C5.24 13.98 5.38 13.748 5.564 13.564C5.756 13.38 5.988 13.24 6.26 13.144C6.532 13.048 6.844 13 7.196 13C7.556 13 7.876 13.052 8.156 13.156C8.436 13.252 8.672 13.396 8.864 13.588C9.064 13.772 9.212 14.004 9.308 14.284C9.412 14.556 9.464 14.868 9.464 15.22V17.2H7.304V15.064C7.304 15.024 7.3 14.992 7.292 14.968C7.292 14.944 7.288 14.928 7.28 14.92C7.28 14.904 7.276 14.892 7.268 14.884C7.26 14.876 7.248 14.872 7.232 14.872C7.224 14.872 7.212 14.876 7.196 14.884C7.188 14.892 7.18 14.904 7.172 14.92C7.172 14.928 7.168 14.944 7.16 14.968C7.16 14.992 7.16 15.024 7.16 15.064Z" fill="black"/>
<path d="M9.79999 15.22C9.79999 14.86 9.84799 14.54 9.94399 14.26C10.04 13.98 10.18 13.748 10.364 13.564C10.556 13.38 10.788 13.24 11.06 13.144C11.332 13.048 11.644 13 11.996 13C12.356 13 12.676 13.052 12.956 13.156C13.236 13.252 13.472 13.396 13.664 13.588C13.864 13.772 14.012 14.004 14.108 14.284C14.212 14.556 14.264 14.868 14.264 15.22V19.408C14.264 19.768 14.212 20.088 14.108 20.368C14.012 20.64 13.864 20.872 13.664 21.064C13.472 21.248 13.236 21.392 12.956 21.496C12.676 21.592 12.356 21.64 11.996 21.64C11.644 21.64 11.332 21.592 11.06 21.496C10.788 21.4 10.556 21.26 10.364 21.076C10.18 20.884 10.04 20.648 9.94399 20.368C9.84799 20.088 9.79999 19.768 9.79999 19.408V15.22ZM11.96 15.064V19.576C11.96 19.608 11.96 19.636 11.96 19.66C11.968 19.684 11.972 19.704 11.972 19.72C11.98 19.736 11.988 19.748 11.996 19.756C12.012 19.764 12.024 19.768 12.032 19.768C12.048 19.768 12.06 19.764 12.068 19.756C12.076 19.748 12.08 19.736 12.08 19.72C12.088 19.704 12.092 19.684 12.092 19.66C12.1 19.636 12.104 19.608 12.104 19.576V15.064C12.104 15.024 12.1 14.992 12.092 14.968C12.092 14.944 12.088 14.928 12.08 14.92C12.08 14.904 12.076 14.892 12.068 14.884C12.06 14.876 12.048 14.872 12.032 14.872C12.024 14.872 12.012 14.876 11.996 14.884C11.988 14.892 11.98 14.904 11.972 14.92C11.972 14.928 11.968 14.944 11.96 14.968C11.96 14.992 11.96 15.024 11.96 15.064Z" fill="black"/>
<path d="M14.5082 13.12H17.2682V17.728H17.4122V13.12H20.1482V21.52H18.1682L18.4202 16.96H18.2762L17.9882 21.52H16.6682L16.3802 16.96H16.2362L16.4882 21.52H14.5082V13.12Z" fill="black"/>
<path d="M20.4 13.12H22.608C23.328 13.12 23.884 13.364 24.276 13.852C24.668 14.332 24.864 15.1 24.864 16.156V16.18C24.864 16.724 24.816 17.18 24.72 17.548C24.632 17.916 24.492 18.212 24.3 18.436C24.116 18.652 23.88 18.808 23.592 18.904C23.304 19 22.968 19.048 22.584 19.048H22.56V21.52H20.4V13.12ZM22.56 14.992V17.176H22.584C22.648 17.176 22.684 17.168 22.692 17.152C22.7 17.128 22.704 17.072 22.704 16.984V15.184C22.704 15.104 22.7 15.052 22.692 15.028C22.684 15.004 22.648 14.992 22.584 14.992H22.56Z" fill="black"/>
<path d="M25.7752 13.12H29.1352L29.6632 21.52H27.5032V16.888H27.3592V21.52H25.1992L25.7752 13.12ZM27.9952 19.792H26.8312V17.92H27.9952V19.792Z" fill="black"/>
<path d="M32.3964 13.12H34.5564V21.52H32.2404L31.6884 16.96H31.5684L32.0604 21.52H29.9004V13.12H32.2164L32.8164 17.728H32.9364L32.3964 13.12Z" fill="black"/>
<path d="M34.7992 13.12H36.9592V16.276H37.1032V13.12H39.2632L38.0872 19.24V21.52H35.9272V19.24L34.7992 13.12Z" fill="black"/>
</mask>
<g mask="url(#mask7_4_304)">
<path d="M14.5082 13.12H17.2682V17.728H17.4122V13.12H20.1482V21.52H18.1682L18.4202 16.96H18.2762L17.9882 21.52H16.6682L16.3802 16.96H16.2362L16.4882 21.52H14.5082V13.12Z" stroke="white"/>
</g>
<mask id="mask8_4_304" style="mask-type:luminance" maskUnits="userSpaceOnUse" x="4" y="12" width="36" height="11">
<path d="M40 12H4V23H40V12Z" fill="white"/>
<path d="M7.16 15.064V19.576C7.16 19.608 7.16 19.636 7.16 19.66C7.168 19.684 7.172 19.704 7.172 19.72C7.18 19.736 7.188 19.748 7.196 19.756C7.212 19.764 7.224 19.768 7.232 19.768C7.248 19.768 7.26 19.764 7.268 19.756C7.276 19.748 7.28 19.736 7.28 19.72C7.288 19.704 7.292 19.684 7.292 19.66C7.3 19.636 7.304 19.608 7.304 19.576V17.44H9.464V19.408C9.464 19.768 9.412 20.088 9.308 20.368C9.212 20.64 9.064 20.872 8.864 21.064C8.672 21.248 8.436 21.392 8.156 21.496C7.876 21.592 7.556 21.64 7.196 21.64C6.844 21.64 6.532 21.592 6.26 21.496C5.988 21.4 5.756 21.26 5.564 21.076C5.38 20.884 5.24 20.648 5.144 20.368C5.048 20.088 5 19.768 5 19.408V15.22C5 14.86 5.048 14.54 5.144 14.26C5.24 13.98 5.38 13.748 5.564 13.564C5.756 13.38 5.988 13.24 6.26 13.144C6.532 13.048 6.844 13 7.196 13C7.556 13 7.876 13.052 8.156 13.156C8.436 13.252 8.672 13.396 8.864 13.588C9.064 13.772 9.212 14.004 9.308 14.284C9.412 14.556 9.464 14.868 9.464 15.22V17.2H7.304V15.064C7.304 15.024 7.3 14.992 7.292 14.968C7.292 14.944 7.288 14.928 7.28 14.92C7.28 14.904 7.276 14.892 7.268 14.884C7.26 14.876 7.248 14.872 7.232 14.872C7.224 14.872 7.212 14.876 7.196 14.884C7.188 14.892 7.18 14.904 7.172 14.92C7.172 14.928 7.168 14.944 7.16 14.968C7.16 14.992 7.16 15.024 7.16 15.064Z" fill="black"/>
<path d="M9.79999 15.22C9.79999 14.86 9.84799 14.54 9.94399 14.26C10.04 13.98 10.18 13.748 10.364 13.564C10.556 13.38 10.788 13.24 11.06 13.144C11.332 13.048 11.644 13 11.996 13C12.356 13 12.676 13.052 12.956 13.156C13.236 13.252 13.472 13.396 13.664 13.588C13.864 13.772 14.012 14.004 14.108 14.284C14.212 14.556 14.264 14.868 14.264 15.22V19.408C14.264 19.768 14.212 20.088 14.108 20.368C14.012 20.64 13.864 20.872 13.664 21.064C13.472 21.248 13.236 21.392 12.956 21.496C12.676 21.592 12.356 21.64 11.996 21.64C11.644 21.64 11.332 21.592 11.06 21.496C10.788 21.4 10.556 21.26 10.364 21.076C10.18 20.884 10.04 20.648 9.94399 20.368C9.84799 20.088 9.79999 19.768 9.79999 19.408V15.22ZM11.96 15.064V19.576C11.96 19.608 11.96 19.636 11.96 19.66C11.968 19.684 11.972 19.704 11.972 19.72C11.98 19.736 11.988 19.748 11.996 19.756C12.012 19.764 12.024 19.768 12.032 19.768C12.048 19.768 12.06 19.764 12.068 19.756C12.076 19.748 12.08 19.736 12.08 19.72C12.088 19.704 12.092 19.684 12.092 19.66C12.1 19.636 12.104 19.608 12.104 19.576V15.064C12.104 15.024 12.1 14.992 12.092 14.968C12.092 14.944 12.088 14.928 12.08 14.92C12.08 14.904 12.076 14.892 12.068 14.884C12.06 14.876 12.048 14.872 12.032 14.872C12.024 14.872 12.012 14.876 11.996 14.884C11.988 14.892 11.98 14.904 11.972 14.92C11.972 14.928 11.968 14.944 11.96 14.968C11.96 14.992 11.96 15.024 11.96 15.064Z" fill="black"/>
<path d="M14.5082 13.12H17.2682V17.728H17.4122V13.12H20.1482V21.52H18.1682L18.4202 16.96H18.2762L17.9882 21.52H16.6682L16.3802 16.96H16.2362L16.4882 21.52H14.5082V13.12Z" fill="black"/>
<path d="M20.4 13.12H22.608C23.328 13.12 23.884 13.364 24.276 13.852C24.668 14.332 24.864 15.1 24.864 16.156V16.18C24.864 16.724 24.816 17.18 24.72 17.548C24.632 17.916 24.492 18.212 24.3 18.436C24.116 18.652 23.88 18.808 23.592 18.904C23.304 19 22.968 19.048 22.584 19.048H22.56V21.52H20.4V13.12ZM22.56 14.992V17.176H22.584C22.648 17.176 22.684 17.168 22.692 17.152C22.7 17.128 22.704 17.072 22.704 16.984V15.184C22.704 15.104 22.7 15.052 22.692 15.028C22.684 15.004 22.648 14.992 22.584 14.992H22.56Z" fill="black"/>
<path d="M25.7752 13.12H29.1352L29.6632 21.52H27.5032V16.888H27.3592V21.52H25.1992L25.7752 13.12ZM27.9952 19.792H26.8312V17.92H27.9952V19.792Z" fill="black"/>
<path d="M32.3964 13.12H34.5564V21.52H32.2404L31.6884 16.96H31.5684L32.0604 21.52H29.9004V13.12H32.2164L32.8164 17.728H32.9364L32.3964 13.12Z" fill="black"/>
<path d="M34.7992 13.12H36.9592V16.276H37.1032V13.12H39.2632L38.0872 19.24V21.52H35.9272V19.24L34.7992 13.12Z" fill="black"/>
</mask>
<g mask="url(#mask8_4_304)">
<path d="M20.4 13.12H22.608C23.328 13.12 23.884 13.364 24.276 13.852C24.668 14.332 24.864 15.1 24.864 16.156V16.18C24.864 16.724 24.816 17.18 24.72 17.548C24.632 17.916 24.492 18.212 24.3 18.436C24.116 18.652 23.88 18.808 23.592 18.904C23.304 19 22.968 19.048 22.584 19.048H22.56V21.52H20.4V13.12ZM22.56 14.992V17.176H22.584C22.648 17.176 22.684 17.168 22.692 17.152C22.7 17.128 22.704 17.072 22.704 16.984V15.184C22.704 15.104 22.7 15.052 22.692 15.028C22.684 15.004 22.648 14.992 22.584 14.992H22.56Z" stroke="white"/>
</g>
<mask id="mask9_4_304" style="mask-type:luminance" maskUnits="userSpaceOnUse" x="4" y="12" width="36" height="11">
<path d="M40 12H4V23H40V12Z" fill="white"/>
<path d="M7.16 15.064V19.576C7.16 19.608 7.16 19.636 7.16 19.66C7.168 19.684 7.172 19.704 7.172 19.72C7.18 19.736 7.188 19.748 7.196 19.756C7.212 19.764 7.224 19.768 7.232 19.768C7.248 19.768 7.26 19.764 7.268 19.756C7.276 19.748 7.28 19.736 7.28 19.72C7.288 19.704 7.292 19.684 7.292 19.66C7.3 19.636 7.304 19.608 7.304 19.576V17.44H9.464V19.408C9.464 19.768 9.412 20.088 9.308 20.368C9.212 20.64 9.064 20.872 8.864 21.064C8.672 21.248 8.436 21.392 8.156 21.496C7.876 21.592 7.556 21.64 7.196 21.64C6.844 21.64 6.532 21.592 6.26 21.496C5.988 21.4 5.756 21.26 5.564 21.076C5.38 20.884 5.24 20.648 5.144 20.368C5.048 20.088 5 19.768 5 19.408V15.22C5 14.86 5.048 14.54 5.144 14.26C5.24 13.98 5.38 13.748 5.564 13.564C5.756 13.38 5.988 13.24 6.26 13.144C6.532 13.048 6.844 13 7.196 13C7.556 13 7.876 13.052 8.156 13.156C8.436 13.252 8.672 13.396 8.864 13.588C9.064 13.772 9.212 14.004 9.308 14.284C9.412 14.556 9.464 14.868 9.464 15.22V17.2H7.304V15.064C7.304 15.024 7.3 14.992 7.292 14.968C7.292 14.944 7.288 14.928 7.28 14.92C7.28 14.904 7.276 14.892 7.268 14.884C7.26 14.876 7.248 14.872 7.232 14.872C7.224 14.872 7.212 14.876 7.196 14.884C7.188 14.892 7.18 14.904 7.172 14.92C7.172 14.928 7.168 14.944 7.16 14.968C7.16 14.992 7.16 15.024 7.16 15.064Z" fill="black"/>
<path d="M9.79999 15.22C9.79999 14.86 9.84799 14.54 9.94399 14.26C10.04 13.98 10.18 13.748 10.364 13.564C10.556 13.38 10.788 13.24 11.06 13.144C11.332 13.048 11.644 13 11.996 13C12.356 13 12.676 13.052 12.956 13.156C13.236 13.252 13.472 13.396 13.664 13.588C13.864 13.772 14.012 14.004 14.108 14.284C14.212 14.556 14.264 14.868 14.264 15.22V19.408C14.264 19.768 14.212 20.088 14.108 20.368C14.012 20.64 13.864 20.872 13.664 21.064C13.472 21.248 13.236 21.392 12.956 21.496C12.676 21.592 12.356 21.64 11.996 21.64C11.644 21.64 11.332 21.592 11.06 21.496C10.788 21.4 10.556 21.26 10.364 21.076C10.18 20.884 10.04 20.648 9.94399 20.368C9.84799 20.088 9.79999 19.768 9.79999 19.408V15.22ZM11.96 15.064V19.576C11.96 19.608 11.96 19.636 11.96 19.66C11.968 19.684 11.972 19.704 11.972 19.72C11.98 19.736 11.988 19.748 11.996 19.756C12.012 19.764 12.024 19.768 12.032 19.768C12.048 19.768 12.06 19.764 12.068 19.756C12.076 19.748 12.08 19.736 12.08 19.72C12.088 19.704 12.092 19.684 12.092 19.66C12.1 19.636 12.104 19.608 12.104 19.576V15.064C12.104 15.024 12.1 14.992 12.092 14.968C12.092 14.944 12.088 14.928 12.08 14.92C12.08 14.904 12.076 14.892 12.068 14.884C12.06 14.876 12.048 14.872 12.032 14.872C12.024 14.872 12.012 14.876 11.996 14.884C11.988 14.892 11.98 14.904 11.972 14.92C11.972 14.928 11.968 14.944 11.96 14.968C11.96 14.992 11.96 15.024 11.96 15.064Z" fill="black"/>
<path d="M14.5082 13.12H17.2682V17.728H17.4122V13.12H20.1482V21.52H18.1682L18.4202 16.96H18.2762L17.9882 21.52H16.6682L16.3802 16.96H16.2362L16.4882 21.52H14.5082V13.12Z" fill="black"/>
<path d="M20.4 13.12H22.608C23.328 13.12 23.884 13.364 24.276 13.852C24.668 14.332 24.864 15.1 24.864 16.156V16.18C24.864 16.724 24.816 17.18 24.72 17.548C24.632 17.916 24.492 18.212 24.3 18.436C24.116 18.652 23.88 18.808 23.592 18.904C23.304 19 22.968 19.048 22.584 19.048H22.56V21.52H20.4V13.12ZM22.56 14.992V17.176H22.584C22.648 17.176 22.684 17.168 22.692 17.152C22.7 17.128 22.704 17.072 22.704 16.984V15.184C22.704 15.104 22.7 15.052 22.692 15.028C22.684 15.004 22.648 14.992 22.584 14.992H22.56Z" fill="black"/>
<path d="M25.7752 13.12H29.1352L29.6632 21.52H27.5032V16.888H27.3592V21.52H25.1992L25.7752 13.12ZM27.9952 19.792H26.8312V17.92H27.9952V19.792Z" fill="black"/>
<path d="M32.3964 13.12H34.5564V21.52H32.2404L31.6884 16.96H31.5684L32.0604 21.52H29.9004V13.12H32.2164L32.8164 17.728H32.9364L32.3964 13.12Z" fill="black"/>
<path d="M34.7992 13.12H36.9592V16.276H37.1032V13.12H39.2632L38.0872 19.24V21.52H35.9272V19.24L34.7992 13.12Z" fill="black"/>
</mask>
<g mask="url(#mask9_4_304)">
<path d="M25.7752 13.12H29.1352L29.6632 21.52H27.5032V16.888H27.3592V21.52H25.1992L25.7752 13.12ZM27.9952 19.792H26.8312V17.92H27.9952V19.792Z" stroke="white"/>
</g>
<mask id="mask10_4_304" style="mask-type:luminance" maskUnits="userSpaceOnUse" x="4" y="12" width="36" height="11">
<path d="M40 12H4V23H40V12Z" fill="white"/>
<path d="M7.16 15.064V19.576C7.16 19.608 7.16 19.636 7.16 19.66C7.168 19.684 7.172 19.704 7.172 19.72C7.18 19.736 7.188 19.748 7.196 19.756C7.212 19.764 7.224 19.768 7.232 19.768C7.248 19.768 7.26 19.764 7.268 19.756C7.276 19.748 7.28 19.736 7.28 19.72C7.288 19.704 7.292 19.684 7.292 19.66C7.3 19.636 7.304 19.608 7.304 19.576V17.44H9.464V19.408C9.464 19.768 9.412 20.088 9.308 20.368C9.212 20.64 9.064 20.872 8.864 21.064C8.672 21.248 8.436 21.392 8.156 21.496C7.876 21.592 7.556 21.64 7.196 21.64C6.844 21.64 6.532 21.592 6.26 21.496C5.988 21.4 5.756 21.26 5.564 21.076C5.38 20.884 5.24 20.648 5.144 20.368C5.048 20.088 5 19.768 5 19.408V15.22C5 14.86 5.048 14.54 5.144 14.26C5.24 13.98 5.38 13.748 5.564 13.564C5.756 13.38 5.988 13.24 6.26 13.144C6.532 13.048 6.844 13 7.196 13C7.556 13 7.876 13.052 8.156 13.156C8.436 13.252 8.672 13.396 8.864 13.588C9.064 13.772 9.212 14.004 9.308 14.284C9.412 14.556 9.464 14.868 9.464 15.22V17.2H7.304V15.064C7.304 15.024 7.3 14.992 7.292 14.968C7.292 14.944 7.288 14.928 7.28 14.92C7.28 14.904 7.276 14.892 7.268 14.884C7.26 14.876 7.248 14.872 7.232 14.872C7.224 14.872 7.212 14.876 7.196 14.884C7.188 14.892 7.18 14.904 7.172 14.92C7.172 14.928 7.168 14.944 7.16 14.968C7.16 14.992 7.16 15.024 7.16 15.064Z" fill="black"/>
<path d="M9.79999 15.22C9.79999 14.86 9.84799 14.54 9.94399 14.26C10.04 13.98 10.18 13.748 10.364 13.564C10.556 13.38 10.788 13.24 11.06 13.144C11.332 13.048 11.644 13 11.996 13C12.356 13 12.676 13.052 12.956 13.156C13.236 13.252 13.472 13.396 13.664 13.588C13.864 13.772 14.012 14.004 14.108 14.284C14.212 14.556 14.264 14.868 14.264 15.22V19.408C14.264 19.768 14.212 20.088 14.108 20.368C14.012 20.64 13.864 20.872 13.664 21.064C13.472 21.248 13.236 21.392 12.956 21.496C12.676 21.592 12.356 21.64 11.996 21.64C11.644 21.64 11.332 21.592 11.06 21.496C10.788 21.4 10.556 21.26 10.364 21.076C10.18 20.884 10.04 20.648 9.94399 20.368C9.84799 20.088 9.79999 19.768 9.79999 19.408V15.22ZM11.96 15.064V19.576C11.96 19.608 11.96 19.636 11.96 19.66C11.968 19.684 11.972 19.704 11.972 19.72C11.98 19.736 11.988 19.748 11.996 19.756C12.012 19.764 12.024 19.768 12.032 19.768C12.048 19.768 12.06 19.764 12.068 19.756C12.076 19.748 12.08 19.736 12.08 19.72C12.088 19.704 12.092 19.684 12.092 19.66C12.1 19.636 12.104 19.608 12.104 19.576V15.064C12.104 15.024 12.1 14.992 12.092 14.968C12.092 14.944 12.088 14.928 12.08 14.92C12.08 14.904 12.076 14.892 12.068 14.884C12.06 14.876 12.048 14.872 12.032 14.872C12.024 14.872 12.012 14.876 11.996 14.884C11.988 14.892 11.98 14.904 11.972 14.92C11.972 14.928 11.968 14.944 11.96 14.968C11.96 14.992 11.96 15.024 11.96 15.064Z" fill="black"/>
<path d="M14.5082 13.12H17.2682V17.728H17.4122V13.12H20.1482V21.52H18.1682L18.4202 16.96H18.2762L17.9882 21.52H16.6682L16.3802 16.96H16.2362L16.4882 21.52H14.5082V13.12Z" fill="black"/>
<path d="M20.4 13.12H22.608C23.328 13.12 23.884 13.364 24.276 13.852C24.668 14.332 24.864 15.1 24.864 16.156V16.18C24.864 16.724 24.816 17.18 24.72 17.548C24.632 17.916 24.492 18.212 24.3 18.436C24.116 18.652 23.88 18.808 23.592 18.904C23.304 19 22.968 19.048 22.584 19.048H22.56V21.52H20.4V13.12ZM22.56 14.992V17.176H22.584C22.648 17.176 22.684 17.168 22.692 17.152C22.7 17.128 22.704 17.072 22.704 16.984V15.184C22.704 15.104 22.7 15.052 22.692 15.028C22.684 15.004 22.648 14.992 22.584 14.992H22.56Z" fill="black"/>
<path d="M25.7752 13.12H29.1352L29.6632 21.52H27.5032V16.888H27.3592V21.52H25.1992L25.7752 13.12ZM27.9952 19.792H26.8312V17.92H27.9952V19.792Z" fill="black"/>
<path d="M32.3964 13.12H34.5564V21.52H32.2404L31.6884 16.96H31.5684L32.0604 21.52H29.9004V13.12H32.2164L32.8164 17.728H32.9364L32.3964 13.12Z" fill="black"/>
<path d="M34.7992 13.12H36.9592V16.276H37.1032V13.12H39.2632L38.0872 19.24V21.52H35.9272V19.24L34.7992 13.12Z" fill="black"/>
</mask>
<g mask="url(#mask10_4_304)">
<path d="M32.3964 13.12H34.5564V21.52H32.2404L31.6884 16.96H31.5684L32.0604 21.52H29.9004V13.12H32.2164L32.8164 17.728H32.9364L32.3964 13.12Z" stroke="white"/>
</g>
<mask id="mask11_4_304" style="mask-type:luminance" maskUnits="userSpaceOnUse" x="4" y="12" width="36" height="11">
<path d="M40 12H4V23H40V12Z" fill="white"/>
<path d="M7.16 15.064V19.576C7.16 19.608 7.16 19.636 7.16 19.66C7.168 19.684 7.172 19.704 7.172 19.72C7.18 19.736 7.188 19.748 7.196 19.756C7.212 19.764 7.224 19.768 7.232 19.768C7.248 19.768 7.26 19.764 7.268 19.756C7.276 19.748 7.28 19.736 7.28 19.72C7.288 19.704 7.292 19.684 7.292 19.66C7.3 19.636 7.304 19.608 7.304 19.576V17.44H9.464V19.408C9.464 19.768 9.412 20.088 9.308 20.368C9.212 20.64 9.064 20.872 8.864 21.064C8.672 21.248 8.436 21.392 8.156 21.496C7.876 21.592 7.556 21.64 7.196 21.64C6.844 21.64 6.532 21.592 6.26 21.496C5.988 21.4 5.756 21.26 5.564 21.076C5.38 20.884 5.24 20.648 5.144 20.368C5.048 20.088 5 19.768 5 19.408V15.22C5 14.86 5.048 14.54 5.144 14.26C5.24 13.98 5.38 13.748 5.564 13.564C5.756 13.38 5.988 13.24 6.26 13.144C6.532 13.048 6.844 13 7.196 13C7.556 13 7.876 13.052 8.156 13.156C8.436 13.252 8.672 13.396 8.864 13.588C9.064 13.772 9.212 14.004 9.308 14.284C9.412 14.556 9.464 14.868 9.464 15.22V17.2H7.304V15.064C7.304 15.024 7.3 14.992 7.292 14.968C7.292 14.944 7.288 14.928 7.28 14.92C7.28 14.904 7.276 14.892 7.268 14.884C7.26 14.876 7.248 14.872 7.232 14.872C7.224 14.872 7.212 14.876 7.196 14.884C7.188 14.892 7.18 14.904 7.172 14.92C7.172 14.928 7.168 14.944 7.16 14.968C7.16 14.992 7.16 15.024 7.16 15.064Z" fill="black"/>
<path d="M9.79999 15.22C9.79999 14.86 9.84799 14.54 9.94399 14.26C10.04 13.98 10.18 13.748 10.364 13.564C10.556 13.38 10.788 13.24 11.06 13.144C11.332 13.048 11.644 13 11.996 13C12.356 13 12.676 13.052 12.956 13.156C13.236 13.252 13.472 13.396 13.664 13.588C13.864 13.772 14.012 14.004 14.108 14.284C14.212 14.556 14.264 14.868 14.264 15.22V19.408C14.264 19.768 14.212 20.088 14.108 20.368C14.012 20.64 13.864 20.872 13.664 21.064C13.472 21.248 13.236 21.392 12.956 21.496C12.676 21.592 12.356 21.64 11.996 21.64C11.644 21.64 11.332 21.592 11.06 21.496C10.788 21.4 10.556 21.26 10.364 21.076C10.18 20.884 10.04 20.648 9.94399 20.368C9.84799 20.088 9.79999 19.768 9.79999 19.408V15.22ZM11.96 15.064V19.576C11.96 19.608 11.96 19.636 11.96 19.66C11.968 19.684 11.972 19.704 11.972 19.72C11.98 19.736 11.988 19.748 11.996 19.756C12.012 19.764 12.024 19.768 12.032 19.768C12.048 19.768 12.06 19.764 12.068 19.756C12.076 19.748 12.08 19.736 12.08 19.72C12.088 19.704 12.092 19.684 12.092 19.66C12.1 19.636 12.104 19.608 12.104 19.576V15.064C12.104 15.024 12.1 14.992 12.092 14.968C12.092 14.944 12.088 14.928 12.08 14.92C12.08 14.904 12.076 14.892 12.068 14.884C12.06 14.876 12.048 14.872 12.032 14.872C12.024 14.872 12.012 14.876 11.996 14.884C11.988 14.892 11.98 14.904 11.972 14.92C11.972 14.928 11.968 14.944 11.96 14.968C11.96 14.992 11.96 15.024 11.96 15.064Z" fill="black"/>
<path d="M14.5082 13.12H17.2682V17.728H17.4122V13.12H20.1482V21.52H18.1682L18.4202 16.96H18.2762L17.9882 21.52H16.6682L16.3802 16.96H16.2362L16.4882 21.52H14.5082V13.12Z" fill="black"/>
<path d="M20.4 13.12H22.608C23.328 13.12 23.884 13.364 24.276 13.852C24.668 14.332 24.864 15.1 24.864 16.156V16.18C24.864 16.724 24.816 17.18 24.72 17.548C24.632 17.916 24.492 18.212 24.3 18.436C24.116 18.652 23.88 18.808 23.592 18.904C23.304 19 22.968 19.048 22.584 19.048H22.56V21.52H20.4V13.12ZM22.56 14.992V17.176H22.584C22.648 17.176 22.684 17.168 22.692 17.152C22.7 17.128 22.704 17.072 22.704 16.984V15.184C22.704 15.104 22.7 15.052 22.692 15.028C22.684 15.004 22.648 14.992 22.584 14.992H22.56Z" fill="black"/>
<path d="M25.7752 13.12H29.1352L29.6632 21.52H27.5032V16.888H27.3592V21.52H25.1992L25.7752 13.12ZM27.9952 19.792H26.8312V17.92H27.9952V19.792Z" fill="black"/>
<path d="M32.3964 13.12H34.5564V21.52H32.2404L31.6884 16.96H31.5684L32.0604 21.52H29.9004V13.12H32.2164L32.8164 17.728H32.9364L32.3964 13.12Z" fill="black"/>
<path d="M34.7992 13.12H36.9592V16.276H37.1032V13.12H39.2632L38.0872 19.24V21.52H35.9272V19.24L34.7992 13.12Z" fill="black"/>
</mask>
<g mask="url(#mask11_4_304)">
<path d="M34.7992 13.12H36.9592V16.276H37.1032V13.12H39.2632L38.0872 19.24V21.52H35.9272V19.24L34.7992 13.12Z" stroke="white"/>
</g>
<path d="M24.4261 19.0086L17.8703 19.8668C17.3227 19.9384 16.9369 20.4405 17.0086 20.9881L17.5552 25.1641C17.6269 25.7117 18.129 26.0975 18.6766 26.0258L25.2323 25.1676C25.7799 25.096 26.1657 24.5939 26.0941 24.0463L25.5474 19.8703C25.4757 19.3227 24.9737 18.9369 24.4261 19.0086Z" fill="white"/>
<path d="M24.3399 19.1207L17.9824 19.9529C17.4348 20.0246 17.049 20.5267 17.1207 21.0743L17.6414 25.052C17.7131 25.5996 18.2151 25.9854 18.7627 25.9137L25.1202 25.0815C25.6678 25.0098 26.0536 24.5078 25.9819 23.9601L25.4612 19.9825C25.3895 19.4348 24.8875 19.049 24.3399 19.1207Z" fill="#1E1E1E"/>
<path d="M18.992 21.9191L19.2347 23.7733C19.2408 23.8196 19.2509 23.8586 19.2652 23.8904C19.2827 23.9217 19.3011 23.9462 19.3202 23.9638C19.3426 23.9811 19.366 23.9931 19.3905 24C19.4178 24.0032 19.4446 24.003 19.4711 23.9995C19.4975 23.9961 19.5219 23.9895 19.5442 23.9799C19.5693 23.9665 19.5888 23.9488 19.6028 23.9268C19.62 23.9044 19.6314 23.876 19.637 23.8417C19.6459 23.8069 19.6473 23.7664 19.6413 23.7201L19.5374 22.9269L20.2315 22.836L20.3288 23.5797C20.3487 23.7317 20.3446 23.8667 20.3163 23.9847C20.2881 24.1027 20.2392 24.2049 20.1699 24.2913C20.1005 24.3777 20.0122 24.4481 19.905 24.5025C19.7974 24.5535 19.6759 24.5879 19.5404 24.6057C19.4048 24.6234 19.2802 24.6213 19.1663 24.5992C19.0521 24.5738 18.9505 24.5299 18.8617 24.4676C18.7757 24.4015 18.7039 24.3151 18.6462 24.2084C18.5914 24.0979 18.5541 23.9666 18.5342 23.8146L18.3038 22.0546C18.2839 21.9026 18.2864 21.7678 18.3113 21.6502C18.3392 21.5289 18.3863 21.4269 18.4528 21.3443C18.5222 21.2579 18.609 21.1893 18.7133 21.1387C18.8177 21.0881 18.9376 21.0539 19.0731 21.0361C19.2086 21.0184 19.3351 21.022 19.4527 21.047C19.5698 21.0686 19.673 21.1122 19.7623 21.1779C19.8516 21.2435 19.9251 21.3297 19.9827 21.4365C20.0404 21.5432 20.079 21.6709 20.0985 21.8197L20.1958 22.5633L19.5017 22.6542L19.3985 21.8659C19.392 21.8163 19.38 21.7759 19.3625 21.7446C19.3482 21.7128 19.3301 21.69 19.3081 21.676C19.289 21.6584 19.2656 21.6463 19.2378 21.6399C19.2134 21.633 19.188 21.6313 19.1615 21.6347C19.1351 21.6382 19.1093 21.6466 19.0841 21.66C19.0623 21.6729 19.0428 21.6906 19.0255 21.713C19.0112 21.7317 18.9995 21.7585 18.9907 21.7932C18.9851 21.8276 18.9855 21.8696 18.992 21.9191Z" fill="white"/>
<path d="M20.6025 24.4162L20.1352 20.8467L20.7946 20.7603L21.2619 24.3299L20.6025 24.4162Z" fill="white"/>
<path d="M22.7454 21.5639L23.0764 24.0924L22.422 24.178L22.091 21.6496L22.7454 21.5639ZM21.7439 21.695L21.9815 23.5096C21.9897 23.5723 22.0094 23.6202 22.0406 23.6531C22.0751 23.6856 22.1155 23.6988 22.1618 23.6927C22.1816 23.6901 22.201 23.6842 22.22 23.675C22.2385 23.6625 22.2566 23.6467 22.2743 23.6275C22.2919 23.6084 22.3059 23.5864 22.3161 23.5616C22.3258 23.5334 22.3337 23.5038 22.3397 23.4727L22.3942 23.8892L22.3347 23.897C22.2966 24.0163 22.2415 24.1092 22.1695 24.1758C22.1009 24.2419 22.017 24.2815 21.9178 24.2945C21.8517 24.3031 21.787 24.2965 21.7236 24.2745C21.6606 24.2558 21.6023 24.2215 21.5487 24.1713C21.4984 24.1208 21.4544 24.0542 21.4167 23.9718C21.3786 23.886 21.3521 23.7869 21.3374 23.6745L21.0895 21.7807L21.7439 21.695Z" fill="white"/>
<path d="M23.2313 24.0721L22.7641 20.5025L23.4185 20.4169L23.5905 21.7307L23.64 21.7242C23.6758 21.6119 23.7298 21.5242 23.8022 21.4609C23.8742 21.3943 23.9614 21.3543 24.0639 21.3409C24.1366 21.3314 24.2046 21.3376 24.268 21.3596C24.3343 21.3778 24.3909 21.4124 24.4379 21.4634C24.4878 21.5107 24.5297 21.5741 24.5637 21.6537C24.5972 21.73 24.6209 21.821 24.6347 21.9268L24.8002 23.191C24.8145 23.3001 24.8159 23.4007 24.8045 23.493C24.7926 23.582 24.7676 23.6609 24.7296 23.7297C24.6948 23.7981 24.6482 23.853 24.5897 23.8943C24.5346 23.9351 24.469 23.9605 24.393 23.9705C24.2971 23.983 24.2061 23.968 24.1198 23.9255C24.0331 23.8797 23.9597 23.807 23.8996 23.7073L23.8501 23.7137L23.8857 23.9864L23.2313 24.0721ZM23.6437 22.1372L23.7962 23.3023C23.8188 23.3464 23.8485 23.3811 23.8855 23.4066C23.9257 23.4315 23.9657 23.4414 24.0053 23.4362C24.0285 23.4332 24.0493 23.4254 24.0678 23.4129C24.0864 23.4004 24.101 23.3834 24.1116 23.3618C24.1222 23.3403 24.1291 23.3158 24.1322 23.2885C24.1387 23.2608 24.14 23.232 24.1361 23.2023L23.9978 22.1463C23.994 22.1166 23.9853 22.0891 23.9719 22.064C23.9619 22.0384 23.9491 22.0182 23.9338 22.0034C23.9179 21.9853 23.8995 21.9726 23.8783 21.9653C23.8572 21.958 23.8351 21.9558 23.8119 21.9588C23.7921 21.9614 23.7729 21.969 23.7544 21.9815C23.7354 21.9907 23.7186 22.003 23.7038 22.0184C23.6923 22.0333 23.6812 22.0516 23.6706 22.0732C23.66 22.0947 23.651 22.1161 23.6437 22.1372Z" fill="white"/>
</svg>
