<svg width="76" height="54" viewBox="0 0 76 54" fill="none" xmlns="http://www.w3.org/2000/svg">
<path d="M0 0H7.58333V7.58333H0V0ZM15.1667 15.1667H7.58333V7.58333H15.1667V15.1667ZM22.75 15.1667H15.1667V22.75H7.58333V30.3333H0V53.0833H75.8333V30.3333H68.25V22.75H60.6667V15.1667H68.25V7.58333H75.8333V0H68.25V7.58333H60.6667V15.1667H53.0833V7.58333H22.75V15.1667ZM22.75 15.1667H53.0833V22.75H60.6667V30.3333H68.25V45.5H7.58333V30.3333H15.1667V22.75H22.75V15.1667ZM30.3333 30.3333H22.75V37.9167H30.3333V30.3333ZM45.5 30.3333H53.0833V37.9167H45.5V30.3333Z" fill="black"/>
</svg>
