<svg width="1360" height="1006" viewBox="0 0 1360 1006" preserveAspectRatio="none" fill="none" xmlns="http://www.w3.org/2000/svg">
    <path d="M666.33 5.80092C674.021 -1.40078 685.979 -1.40077 693.67 5.80093L781.478 88.0247C787.209 93.3906 795.548 94.9078 802.801 91.904L928.808 39.7191C939.242 35.3982 951.181 40.5665 955.171 51.1309L990.412 144.443C993.588 152.851 1001.98 158.108 1010.93 157.294L1149.06 144.733C1162.14 143.543 1172.8 155.078 1170.58 168.028L1155.89 253.762C1154.06 264.433 1161.06 274.621 1171.67 276.749L1294.95 301.463C1309.54 304.387 1315.94 321.646 1306.79 333.375L1251.73 403.937C1244.22 413.564 1247.02 427.617 1257.64 433.638L1349.31 485.601C1362.82 493.263 1362.82 512.737 1349.31 520.399L1257.64 572.362C1247.02 578.383 1244.22 592.436 1251.73 602.063L1306.79 672.625C1315.94 684.354 1309.54 701.613 1294.95 704.537L1171.67 729.251C1161.06 731.379 1154.06 741.567 1155.89 752.238L1170.58 837.972C1172.8 850.922 1162.14 862.457 1149.06 861.267L1010.93 848.706C1001.98 847.892 993.588 853.149 990.412 861.557L955.171 954.869C951.181 965.434 939.242 970.602 928.808 966.281L802.801 914.096C795.548 911.092 787.209 912.609 781.478 917.975L693.67 1000.2C685.979 1007.4 674.021 1007.4 666.33 1000.2L578.522 917.975C572.791 912.609 564.452 911.092 557.199 914.096L431.192 966.281C420.758 970.602 408.819 965.434 404.829 954.869L369.588 861.557C366.412 853.149 358.017 847.892 349.066 848.706L210.944 861.267C197.86 862.457 187.202 850.922 189.42 837.972L204.109 752.238C205.937 741.567 198.943 731.379 188.328 729.251L65.0509 704.537C50.4644 701.613 44.0625 684.354 53.2137 672.625L108.266 602.063C115.777 592.436 112.983 578.383 102.36 572.362L10.6932 520.399C-2.82292 512.737 -2.82296 493.263 10.6932 485.601L102.36 433.638C112.983 427.617 115.777 413.564 108.266 403.937L53.2137 333.375C44.0625 321.646 50.4644 304.387 65.051 301.463L188.328 276.749C198.943 274.621 205.937 264.433 204.109 253.762L189.42 168.028C187.202 155.078 197.86 143.543 210.944 144.733L349.066 157.294C358.017 158.108 366.412 152.851 369.588 144.443L404.829 51.1309C408.819 40.5665 420.758 35.3982 431.192 39.7191L557.199 91.904C564.452 94.9078 572.791 93.3906 578.522 88.0247L666.33 5.80092Z" fill=" #caf291"></path>
</svg>